<svg xmlns="http://www.w3.org/2000/svg" width="120" height="120" viewBox="0 0 120 120"><style type="text/css"><![CDATA[
	.st0{fill-rule:evenodd;clip-rule:evenodd;fill:#A7C8E6;}
	.st1{fill:#5091CD;}
	.st2{fill-rule:evenodd;clip-rule:evenodd;fill:#5091CD;}
	.st3{fill-rule:evenodd;clip-rule:evenodd;fill:#FFFFFF;}
]]></style><g id="Icons"><path class="st0" d="M60 119C27.5 119 1 92.5 1 60S27.5 1 60 1s59 26.5 59 59-26.5 59-59 59z"/><path class="st1" d="M60 2c32 0 58 26 58 58s-26 58-58 58S2 92 2 60 28 2 60 2m0-2C27 0 0 27 0 60s27 60 60 60 60-27 60-60S93 0 60 0z"/><path class="st2" d="M67.8 21.1l51 51C113.3 98.8 90 119 62 120l-19.5-19.5 3-9.3-10.1-10.1 14.4-3.4-8-8L45.4 58l5.5-10.3 9.5-3.2-8-8 15.4-15.4z"/><path class="st3" d="M60 17.9c6 0 10.9 4.9 10.9 10.9S66 39.7 60 39.7s-10.9-4.9-10.9-10.9c0-6.1 4.9-10.9 10.9-10.9zm0 83.6H45.5c-2.4 0-3.6-1.4-4.1-3.1L39 89.8c-.5-1.9.6-3.4 2.7-3.4h36.6c2.1 0 3.3 1.6 2.7 3.4l-2.4 8.6c-.5 1.8-1.7 3.1-4.1 3.1H60zm-4.9-44.2c0-1-1.5-1-1.5 0v.2c-.2 0-.4.2-.4.4V59c0 .2.2.4.4.4V63c0 1.1.5 2 1.5 2.5 2.7 1.4 7 1.3 9.7 0 1-.5 1.4-1.4 1.4-2.5v-3.6c.2 0 .4-.2.4-.4v-1c0-.2-.2-.4-.4-.4v-.2c0-1-1.5-1-1.5 0v5.8c0 .5-.2.9-.6 1.2-2.3 1.2-6 1.1-8.4 0-.5-.3-.7-.7-.7-1.2v-5.9h.1zm-.2 16.5c-.8 0-1.5.7-1.5 1.5s.7 1.5 1.5 1.5h10.2c.8 0 1.5-.7 1.5-1.5s-.7-1.5-1.5-1.5H54.9zm6.6-2.6c.3 0 .5.3.5.5v1.2h-3.8v-1.2c0-.3.2-.5.5-.5v-3.6c.5 0 .9.1 1.4.1.5 0 1 0 1.5-.1v3.6h-.1zm2.4-19.6v.2h-2.8c-.3 0-.5.2-.5.5s.2.5.5.5h2.8v.9h-2.8c-.3 0-.5.2-.5.5s.2.5.5.5h2.8v.9h-2.8c-.3 0-.5.2-.5.5s.2.5.5.5h2.8v.9h-2.8c-.3 0-.5.2-.5.5s.2.5.5.5h2.8v.9h-2.8c-.3 0-.5.2-.5.5s.2.5.5.5h2.8v.6h-2.8c-.3 0-.5.2-.5.5s.2.5.5.5h2.8v.2c0 2.8-7.8 2.8-7.8 0V62h2.8c.3 0 .5-.2.5-.5s-.2-.5-.5-.5h-2.8v-.9h2.8c.3 0 .5-.2.5-.5s-.2-.5-.5-.5h-2.8v-.9h2.8c.3 0 .5-.2.5-.5s-.2-.5-.5-.5h-2.8v-.9h2.8c.3 0 .5-.2.5-.5s-.2-.5-.5-.5h-2.8v-.9h2.8c.3 0 .5-.2.5-.5s-.2-.5-.5-.5h-2.8v-.9h2.8c.3 0 .5-.2.5-.5s-.2-.5-.5-.5h-2.8v-.2c0-2.5 7.8-2.5 7.8.3zM37.9 75h12.7v.3c0 2.4 1.9 4.3 4.3 4.3h10.2c2.4 0 4.3-1.9 4.3-4.3V75h12.7c2 0 3.5 1.6 3.5 3.5S84 82 82.1 82H37.9c-2 0-3.5-1.6-3.5-3.5S36 75 37.9 75zM78 56.8L79.2 67c.2 2-1.7 3.7-3.7 3.7H64.6c-.1-.3-.2-.5-.3-.7v-1.1c2.9-.8 4.9-2.6 4.9-5.7v-2.5c.6-1.1.5-3.4-.2-4.4-.3-1.1-1.2-1.9-2.3-2.3v-2.4c0-6.6-13.5-6.6-13.5 0V54c-1.1.4-1.9 1.1-2.3 2.3-.7 1.1-.8 3.3-.2 4.4v2.5c0 3.1 2 4.9 4.9 5.8v1c-.1.2-.2.5-.3.7H44.5c-2 0-4-1.7-3.7-3.7L42 56.8C43 49.6 50.7 44 60 44c4.8 0 9.2 1.5 12.4 3.9 3 2.3 5.1 5.4 5.6 8.9z"/></g></svg>