<svg xmlns="http://www.w3.org/2000/svg" viewBox="0 0 220 120" enable-background="new 0 0 220 120"><g><path fill="#DBCE5D" d="M167 60.2c0 30.4-25.4 55.1-56.8 55.1s-56.8-24.7-56.8-55.1c0-30.4 25.4-55.1 56.8-55.1 31.3 0 56.8 24.7 56.8 55.1"/><path fill="#630055" d="M160.5 60.2c0 26.9-22.5 48.7-50.3 48.7-27.8 0-50.3-21.8-50.3-48.7 0-26.9 22.5-48.7 50.3-48.7 27.7-.1 50.3 21.7 50.3 48.7"/><path fill="#DBCE5D" d="M59.9 43.5h100.5v.8h-100.5zM59.9 74.4h100.5v.8h-100.5zM138.3 43.9c-5.7-9.3-16.2-15.5-28.1-15.5-11.9 0-22.4 6.2-28.1 15.5h56.2z"/><path fill="#fff" d="M145.6 58.4M146 58.6"/><path fill="#DBCE5D" d="M85.9 86.7l1.1 3.3h3.5l-2.8 2 1.1 3.3-2.9-2-2.8 2 1.1-3.3-2.8-2h3.5zM134.3 86.7l1.1 3.3h3.5l-2.8 2 1 3.3-2.8-2-2.8 2 1.1-3.3-2.8-2h3.5z"/><g fill="#fff"><path d="M77.8 39.8l-1 1.3-1.9-1.5 1-1.3c.6.2 1.1.2 1.5-.3.2-.3.2-.6 0-.8-.1-.1-.3-.1-.5-.1s-.5.2-1 .4c-.6.3-1.1.5-1.4.6-.3.1-.7.1-1 .1-.4 0-.7-.2-1-.4-.5-.4-.8-.9-.9-1.5 0-.6.2-1.1.6-1.7.4-.5.9-.8 1.5-1l-.4-.3 1-1.3 1.7 1.3-1 1.3c-.6-.2-1-.1-1.4.3-.2.3-.2.5 0 .7.1.1.2.1.4.1.1 0 .5-.2 1-.4.7-.4 1.3-.6 1.5-.7.1 0 .3-.1.5-.1h.6c.4.1.8.2 1.1.5.5.4.8.9.8 1.5.1.6-.1 1.2-.6 1.8-.4.5-.9.9-1.6 1l.5.5zM77.4 31.4l-.4.4-1.2-1.3 2.9-2.5 1.2 1.3-.3.2 1.7 1.9c.4.5.7.7.9.8.2.1.5 0 .7-.2.2-.2.3-.4.2-.6 0-.2-.2-.5-.6-.9l-1.8-2-.3.2-1.2-1.3 2.1-1.9 1.2 1.3-.4.4 1.8 2c.5.5.8 1 .9 1.5.1.5.1.9-.1 1.4-.2.5-.5 1-1 1.4-.4.4-.8.6-1.2.8-.4.2-.8.3-1.2.2-.4 0-.7-.1-1-.3-.3-.2-.7-.6-1.2-1.1l-1.7-1.7zM90.4 28.7l-3.8 2.2-.9-1.6.6-.4-1.9-3.4-.6.4-.9-1.6 4-2.3c.9-.5 1.6-.8 2.2-.9.5-.1 1 0 1.4.2.4.2.7.5.9.9.3.5.4.9.3 1.3-.1.4-.3.8-.6 1.2-.3.4-.9.8-1.7 1.2l-1 .6.5.9.7-.4.8 1.7zm-3.5-4.7l.7 1.2.4-.2c.3-.2.6-.4.7-.5.1-.2.1-.4 0-.6-.1-.2-.2-.3-.3-.3-.1-.1-.3-.1-.4 0-.1 0-.4.1-.7.3l-.4.1zM98.4 25.4l-4.2 1.3-.5-1.7.7-.2-1.2-3.8-.7.2-.5-1.7 4.4-1.3c1-.3 1.8-.4 2.3-.4.5.1 1 .2 1.3.5.3.3.5.6.7 1 .2.5.2 1 0 1.4-.2.4-.4.8-.8 1-.4.3-1 .6-1.9.8l-1.1.3.3 1 .7-.2.5 1.8zm-2.5-5.4l.4 1.3.5-.2c.4-.1.6-.2.8-.4.1-.1.2-.3.1-.6-.1-.2-.1-.3-.3-.4-.1-.1-.3-.1-.4-.1-.1 0-.4.1-.7.2l-.4.2zM102.3 20.4c0-.6.1-1.2.3-1.8.3-.6.7-1.1 1.3-1.6.2-.2.4-.3.7-.4.2-.1.5-.2.8-.3.3-.1.6-.1.9-.1 1.3-.1 2.4.2 3.2.9.4.4.7.8.9 1.2.2.4.3.9.4 1.4.1 1-.2 2-.9 2.8-.7.8-1.7 1.3-3 1.4-1.2.1-2.3-.2-3.1-.8-1-.7-1.4-1.6-1.5-2.7zm3.2-.3c.1.8.2 1.4.4 1.7.2.3.4.4.8.4.3 0 .6-.2.7-.5.1-.3.2-.9.1-1.7-.1-.8-.2-1.4-.4-1.7-.2-.3-.4-.4-.8-.4-.3 0-.6.2-.7.5-.1.3-.2.9-.1 1.7zM115.7 24.1l-4-.6.3-1.8.6.1.6-3.9-.6-.1.3-1.8 4 .6c.4.1.7.1 1 .2.3.1.6.1.8.2l.6.2c.5.2.9.5 1.2.9.3.4.4.9.3 1.4-.1.4-.2.7-.4 1-.2.3-.5.5-.9.6l.8 1.8.5.1-.3 1.8-2.7-.4-1.2-3.3-.9-.1-.2 1.2.6.1-.4 1.8zm.2-5.9l-.2 1.4h.3c.4.1.7.1.9.1.2 0 .3-.1.4-.2.1-.1.2-.2.2-.4s0-.4-.1-.5c-.1-.1-.2-.2-.4-.3-.2 0-.5-.1-.9-.2l-.2.1zM125.7 26.8l-3.9-1.4.6-1.7.6.2 1.3-3.7-.8-.3-.5 1.3-1.3-.5 1.1-3 7 2.5-1.1 3-1.3-.5.5-1.3-.8-.3-1.3 3.7.6.2-.7 1.8zM131.4 29.8l-3.7-2.1.9-1.6.6.3 1.9-3.4-.6-.3.9-1.6 3.7 2.1-.9 1.6-.6-.3-1.9 3.4.6.3-.9 1.6zM134.2 31.8l-2.4-1.9 1.1-1.4.5.4 2.5-3-.5-.4 1.1-1.4 2.7 2.2-.4 4.7 1.3-1.6-.5-.4 1.1-1.4 2.3 1.9-1.1 1.4-.5-.4-3.4 4.5-1.9-1.6.4-5.5-1.7 2 .5.4-1.1 1.5zM144.4 38.6l-.5-.6 1.1-.9 2.1 2.6c-.6.5-1.2.8-1.5 1-.4.1-.8.2-1.3.2s-1-.2-1.4-.5c-.4-.3-.8-.6-1.2-1.1-.5-.7-.9-1.4-1.1-2.1-.2-.7-.2-1.4.1-2.1.3-.7.7-1.3 1.3-1.7.9-.7 1.9-1 2.9-.8 1 .2 1.9.7 2.6 1.5.6.7.8 1.4.8 2.1l.4-.3 1.1 1.4-2.1 1.6-1.1-1.4c.2-.3.2-.6.2-.9 0-.3-.1-.6-.3-.8-.3-.4-.6-.6-1-.5-.4 0-.9.3-1.5.8s-1 .9-1.1 1.3c-.1.4 0 .7.3 1.1.2.4.6.5 1.2.1z"/></g><g fill="#fff"><path d="M96.6 97.7c.2.4.7.7 1.1.7.8 0 1.2-1.2 1.2-3 0-1.6-.4-2.6-1-3.6s-1.4-2.6-1.4-4.9c0-2.6.8-4.6 2-4.6.5 0 .9.3 1 .6l-.2 1.7c-.2-.3-.5-.6-.9-.6-.7 0-1.1 1.3-1.1 2.5 0 1.7.4 2.4 1.1 3.6.9 1.5 1.3 3.1 1.3 5 0 3-.9 4.9-2.1 4.9-.5 0-1-.4-1.2-.8l.2-1.5zM106.3 92.5c-.1-2.3-.1-4.9-.1-6.9-.2 1.9-.4 4-.6 6.1l-.9 8.2h-.5l-.9-7.9c-.3-2.2-.5-4.4-.6-6.4 0 2.1 0 4.5-.1 7l-.1 7.4h-.8l.4-17.5h.9l.9 8c.3 2.3.4 4 .6 6 .1-2 .3-3.7.6-6l.8-8h.9l.4 17.5h-.8l-.1-7.5zM110.3 94.8l-.5 5.2h-.8l1.7-17.5h.9l1.7 17.5h-.8l-.5-5.2h-1.7zm1.5-1.6l-.4-4.4c-.1-1.2-.2-2.7-.3-4-.1 1.3-.2 2.8-.3 4l-.4 4.4h1.4zM115.3 82.5h.8v15.8h2.1v1.7h-2.9v-17.5zM120.2 82.5h.8v15.8h2.1v1.7h-2.9v-17.5z"/></g><path fill="#fff" d="M151.1 59.8v1.2000000000000002l-.1.4-.1.4-.1.4-.2.4c-.1.1-.1.2-.2.4l-.5.7-.5.6-.5.5-.6.5-1.2.8-.6.3-.6.3c-.4.2-.8.4-1.3.6l-1.3.5c-.4.2-.9.3-1.3.4l-1.3.4c-.9.3-1.7.5-2.6.7l-2.6.6-2.6.6-2.6.6-2.6.6-2.6.6-.6.2-.3.1-.3.1c-.2.1-.4.1-.7.1-.2 0-.4.1-.7.1l-1.3.3-1.3.3-2.6.5-1.3.3-1.3.3-2.6.6c-.8.2-1.7.4-2.6.6-.2.1-.4.1-.6.1-.2 0-.4.1-.6.2-.2.1-.4.1-.6.1l-.6.1-.6.2c-.2 0-.4.1-.6.2l-.6.2c-.2 0-.4.1-.6.2-.4.1-.8.2-1.3.3-.4.1-.8.2-1.3.3l-.6.2-.6.2-.6.2-.6.2-.3.1-.3.1-.6.2-.6.2-.6.2-.6.2-.6.2c-.2.1-.4.2-.6.2-.2.1-.4.2-.6.2l-.3.1-.3.1-.3.1-.3.1c-.2.1-.4.2-.6.2-.2.1-.4.2-.5.3-.4.2-.7.4-1 .5l-.5.3c-.1-1.5-.4-3-.9-4.3-.5-1.3-1.2-2.5-2.1-3.5-.9-1-1.8-1.8-3-2.4-1.1-.6-2.3-.9-3.6-.9-.7 0-1.4.1-2.1.3-.7.2-1.3.4-1.9.8l.5-.5.5-.4c.3-.3.7-.6 1.1-.8.4-.2.7-.5 1-.6.3-.2.6-.3 1-.5l.9-.4.9-.3c.3-.1.6-.2.8-.3.3-.1.6-.2.8-.2l.8-.2.8-.2.8-.2.8-.1c.3 0 .5-.1.7-.1l.7-.1 1.5-.2h4.4l1.4-.1h12.299999999999997l2.7.1c.9 0 1.8.1 2.6.1h1.3c.4 0 .9 0 1.3.1h13c.9 0 1.7 0 2.6-.1l2.6-.1c.9 0 1.7-.1 2.6-.2l1.3-.1c.4 0 .9-.1 1.3-.2s.8-.1 1.3-.2c.4-.1.8-.1 1.3-.2.4-.1.8-.2 1.3-.3.4-.1.8-.2 1.2-.4l.6-.2.6-.2.6-.3.6-.3c.4-.2.7-.5 1-.7l.5-.4.4-.5.3-.5.3-.6.1-.3v-.8c0-.5 0-.9-.1-1.4l-.1-.3-.1-.3-.2-.3c-.1-.1-.1-.2-.2-.2l.4-.5c.2.2.4.4.5.6.1.1.1.2.2.4l.2.4c.1.3.2.5.2.8-.4-.3-.3 0-.3.3"/><g fill="#fff"><path d="M75.3 52.1c-.3.7-.8 2.7-1.5 6h.7c1 0 1.8-.5 2.5-1.5s1-2.3 1-3.9c0-2.4-1-3.5-2.9-3.5-.8 0-1.5.1-2.2.2-.7.2-1.3.3-1.7.5-.4.2-.8.4-1.1.5-.3.2-.6.2-.7.2-.2 0-.4-.1-.4-.4 0-.3.2-.5.5-.8.3-.3.7-.5 1.2-.8.4-.3 1-.5 1.6-.8 1.5-.7 3-1 4.8-1 2.3 0 3.8.7 4.6 2.2.4.8.7 1.8.7 2.9 0 2.2-.6 3.9-1.8 5.3-1 1.2-2.4 2-4 2.3-.5.1-1 .1-1.6.1-.6 0-1.1-.1-1.5-.2-.2 1-.4 1.8-.5 2.3-.1.5-.2.9-.4 1.3-.1.3-.3.6-.5.8-.2.2-.4.3-.6.4-.4.2-.9.2-1.6.2-.7 0-1.3-.1-1.9-.3-.6-.2-1-.5-1.4-.8-.3-.3-.5-.6-.5-.9 0-.2 0-.3.1-.4.1-.1.2-.2.3-.2.5 0 .8-.1 1-.3.2-.2.4-.6.6-1.2.2-.6.4-1.3.6-2.1.2-.8.4-1.5.6-2.2l.6-2.1c.5-1.5 1.1-2.5 1.8-3 .3-.2.8-.4 1.3-.5.5-.1 1-.2 1.3-.2h.6c.1 0 .2 0 .3.1.2.1.3.2.3.5 0 .2 0 .3-.1.4.2.2.1.5-.1.9zM91.8 52.5l3.4.2c.1 0 .2.1.3.2.1.1.1.2.1.4 0 .5-.2 1.4-.5 2.6l-.9 3.5c-.3 1.2-.5 1.9-.5 2.3 0 .4 0 .6.1.7.1.1.2.2.4.2s.6-.2 1.2-.5 1-.6 1.2-.7c.2-.2.4-.2.5-.2.2 0 .3.1.3.4 0 .5-.7 1.3-2.2 2.1-.5.3-1.1.6-1.8.8-.7.2-1.4.3-2.2.3-1.2 0-1.9-.6-2.2-1.7-.8 1.2-1.8 1.7-3.1 1.7-.9 0-1.7-.3-2.3-1-.7-.7-1-1.8-1-3.3 0-1.6.3-3 .9-4.4.7-1.5 1.6-2.5 2.8-3.1.6-.3 1.3-.5 2.1-.5 1.1 0 2 .4 2.6 1.2v-.7c0-.3.3-.5.8-.5zm-3.9 9.4c.9 0 1.7-1.1 2.3-3.2.3-1 .4-1.8.4-2.4s-.1-1-.2-1.3c-.1-.2-.4-.3-.8-.3s-.8.3-1.3.8-.8 1.2-1.1 2.1c-.3.8-.4 1.6-.4 2.3 0 .7.1 1.2.3 1.5.2.3.5.5.8.5zM98.9 52.9l3.5-.1c.1 0 .2.1.3.2.1.1.1.2.1.3 0 .1 0 .3-.1.5 0 .2-.1.5-.1.8-.1.3-.1.5-.1.6.4-.7.9-1.3 1.5-1.8s1.1-.8 1.5-.8c.9 0 1.4.3 1.4.9 0 .6-.1 1.3-.4 2.2-.3.8-.5 1.4-.7 1.7-.1.1-.2.2-.4.2s-.3-.1-.4-.2c-.6-.7-1.3-1-2-1-.3 0-.5 0-.7.1-.2 1-.5 2.4-.9 4.4-.4 1.9-.7 3-.7 3.2-.1.3-.2.5-.4.5-.7 0-1.5.1-2.3.2-.8.1-1.3.2-1.4.2-.1 0-.2 0-.3-.1-.1-.1-.1-.2-.1-.4 0-.1.1-.6.3-1.5.2-.9.4-1.8.7-2.8.3-1 .5-2.1.7-3.2.2-1.2.3-2.1.3-2.9v-.4c-.1-.6.2-.8.7-.8zM113.6 53l2-.4c.4 0 .5.2.5.6 0 .4-.2.7-.5.8-.3.1-1.1.2-2.4.4-.2.7-.4 1.6-.8 2.7-.7 2.4-1 3.8-1 4.3s.2.8.7.8c1.4 0 2.7-.3 3.8-1.1.2-.1.3-.2.4-.2.2 0 .3.1.3.4 0 .2-.1.5-.4.7-.7.7-1.8 1.3-3.3 1.8-1.5.5-2.8.7-4.1.7-.7 0-1.2-.2-1.6-.5-.4-.3-.6-.8-.6-1.4 0-.6.3-1.7.8-3.3.6-1.8 1-3.4 1.2-4.7h-.6c-.3 0-.4-.2-.4-.5s0-.4.1-.5c.1-.1.2-.2.3-.2l.3-.1h.6c.1-.6.1-1.1.1-1.6v-.4c0-.3.3-.6.8-.7.2 0 .8-.2 1.8-.6 1-.3 1.6-.5 1.8-.5.4 0 .5.2.5.6 0 .9-.1 1.8-.3 2.9zM130.2 61.1c.2 0 .3.1.3.4 0 .3-.1.5-.3.7-.2.2-.4.4-.8.7-.4.2-.8.5-1.3.8-.5.3-1.1.5-1.8.8-.7.2-1.3.3-2 .3-1.5 0-2.2-.5-2.2-1.5 0-.6.2-1.8.7-3.5.5-1.7.7-2.8.7-3.4 0-.7-.3-1-1-1-.3 0-.7.1-1.1.2-.2 1-.5 2.6-1 4.7-.5 2.2-.8 3.4-.8 3.7-.1.3-.2.4-.4.4l-3.8.1c-.1 0-.1 0-.2-.1s-.1-.2-.1-.4c0-.1.1-.6.3-1.5.2-.8.4-1.7.7-2.7.3-1 .5-2 .7-3.2.2-1.1.3-2.1.3-2.9v-.4c0-.4.2-.6.7-.6l3.5-.1c.1 0 .2.1.3.2.1.1.1.3.1.4s0 .4-.1.8c1.7-1.1 3.2-1.6 4.3-1.6.5 0 .9.2 1.3.6.4.4.7 1.1.7 2 0 .9-.2 2.1-.7 3.6-.5 1.5-.7 2.4-.7 2.7 0 .7.2 1 .6 1 .2 0 .6-.1 1.2-.4l1.2-.6.7-.2zM141.7 61.1c.2 0 .3.1.3.4 0 .2-.1.5-.4.7-.2.2-.5.4-.9.7-.3.2-.8.5-1.4.8-1.4.7-3 1.1-4.8 1.1-3.4 0-5-1.5-5-4.6 0-1.5.3-2.8 1-4 .6-1.2 1.5-2.1 2.6-2.7 1.1-.6 2.2-.9 3.5-.9 1.3 0 2.2.3 2.8.9.6.6.9 1.4.9 2.4s-.3 1.9-.8 2.6c-.6.7-1.3 1.2-2.2 1.5-.9.3-2 .6-3.2.7.1 1.1.6 1.9 1.7 2.1.3.1.5.1.8.1 1.2 0 2.8-.5 5-1.6-.1-.1 0-.2.1-.2zm-7.8-1.8c.9-.4 1.5-.9 2-1.6.5-.7.8-1.6.8-2.6 0-.3-.1-.5-.2-.7-.1-.2-.3-.2-.5-.2s-.5.2-.8.5c-.3.3-.5.7-.7 1.2-.3 1-.6 2.2-.6 3.4zM143.4 52.9l3.5-.1c.1 0 .2.1.3.2.1.1.1.2.1.3 0 .1 0 .3-.1.5 0 .2-.1.5-.1.8-.1.3-.1.5-.1.6.4-.7.9-1.3 1.5-1.8s1.1-.8 1.5-.8c.9 0 1.4.3 1.4.9 0 .6-.1 1.3-.4 2.2-.3.8-.5 1.4-.7 1.7-.1.1-.2.2-.4.2s-.3-.1-.4-.2c-.6-.7-1.3-1-2-1-.3 0-.5 0-.7.1-.2 1-.5 2.4-.9 4.4-.4 1.9-.7 3-.7 3.2-.1.3-.2.5-.4.5-.7 0-1.5.1-2.3.2-.8.1-1.3.2-1.4.2-.1 0-.2 0-.3-.1-.1-.1-.1-.2-.1-.4 0-.1.1-.6.3-1.5.2-.9.4-1.8.7-2.8.3-1 .5-2.1.7-3.2.2-1.2.3-2.1.3-2.9v-.4c-.1-.6.2-.8.7-.8z"/></g><path fill="#DBCE5D" d="M167 60.2c0 30.4-25.4 55.1-56.8 55.1s-56.8-24.7-56.8-55.1c0-30.4 25.4-55.1 56.8-55.1 31.3 0 56.8 24.7 56.8 55.1"/><path fill="#630055" d="M160.5 60.2c0 26.9-22.5 48.7-50.3 48.7-27.8 0-50.3-21.8-50.3-48.7 0-26.9 22.5-48.7 50.3-48.7 27.7-.1 50.3 21.7 50.3 48.7"/><path fill="#DBCE5D" d="M59.9 43.5h100.5v.8h-100.5zM59.9 74.4h100.5v.8h-100.5zM138.3 43.9c-5.7-9.3-16.2-15.5-28.1-15.5-11.9 0-22.4 6.2-28.1 15.5h56.2z"/><path fill="#fff" d="M145.6 58.4M146 58.6"/><path fill="#DBCE5D" d="M85.9 86.7l1.1 3.3h3.5l-2.8 2 1.1 3.3-2.9-2-2.8 2 1.1-3.3-2.8-2h3.5zM134.3 86.7l1.1 3.3h3.5l-2.8 2 1 3.3-2.8-2-2.8 2 1.1-3.3-2.8-2h3.5z"/><g fill="#fff"><path d="M77.8 39.8l-1 1.3-1.9-1.5 1-1.3c.6.2 1.1.2 1.5-.3.2-.3.2-.6 0-.8-.1-.1-.3-.1-.5-.1s-.5.2-1 .4c-.6.3-1.1.5-1.4.6-.3.1-.7.1-1 .1-.4 0-.7-.2-1-.4-.5-.4-.8-.9-.9-1.5 0-.6.2-1.1.6-1.7.4-.5.9-.8 1.5-1l-.4-.3 1-1.3 1.7 1.3-1 1.3c-.6-.2-1-.1-1.4.3-.2.3-.2.5 0 .7.1.1.2.1.4.1.1 0 .5-.2 1-.4.7-.4 1.3-.6 1.5-.7.1 0 .3-.1.5-.1h.6c.4.1.8.2 1.1.5.5.4.8.9.8 1.5.1.6-.1 1.2-.6 1.8-.4.5-.9.9-1.6 1l.5.5zM77.4 31.4l-.4.4-1.2-1.3 2.9-2.5 1.2 1.3-.3.2 1.7 1.9c.4.5.7.7.9.8.2.1.5 0 .7-.2.2-.2.3-.4.2-.6 0-.2-.2-.5-.6-.9l-1.8-2-.3.2-1.2-1.3 2.1-1.9 1.2 1.3-.4.4 1.8 2c.5.5.8 1 .9 1.5.1.5.1.9-.1 1.4-.2.5-.5 1-1 1.4-.4.4-.8.6-1.2.8-.4.2-.8.3-1.2.2-.4 0-.7-.1-1-.3-.3-.2-.7-.6-1.2-1.1l-1.7-1.7zM90.4 28.7l-3.8 2.2-.9-1.6.6-.4-1.9-3.4-.6.4-.9-1.6 4-2.3c.9-.5 1.6-.8 2.2-.9.5-.1 1 0 1.4.2.4.2.7.5.9.9.3.5.4.9.3 1.3-.1.4-.3.8-.6 1.2-.3.4-.9.8-1.7 1.2l-1 .6.5.9.7-.4.8 1.7zm-3.5-4.7l.7 1.2.4-.2c.3-.2.6-.4.7-.5.1-.2.1-.4 0-.6-.1-.2-.2-.3-.3-.3-.1-.1-.3-.1-.4 0-.1 0-.4.1-.7.3l-.4.1zM98.4 25.4l-4.2 1.3-.5-1.7.7-.2-1.2-3.8-.7.2-.5-1.7 4.4-1.3c1-.3 1.8-.4 2.3-.4.5.1 1 .2 1.3.5.3.3.5.6.7 1 .2.5.2 1 0 1.4-.2.4-.4.8-.8 1-.4.3-1 .6-1.9.8l-1.1.3.3 1 .7-.2.5 1.8zm-2.5-5.4l.4 1.3.5-.2c.4-.1.6-.2.8-.4.1-.1.2-.3.1-.6-.1-.2-.1-.3-.3-.4-.1-.1-.3-.1-.4-.1-.1 0-.4.1-.7.2l-.4.2zM102.3 20.4c0-.6.1-1.2.3-1.8.3-.6.7-1.1 1.3-1.6.2-.2.4-.3.7-.4.2-.1.5-.2.8-.3.3-.1.6-.1.9-.1 1.3-.1 2.4.2 3.2.9.4.4.7.8.9 1.2.2.4.3.9.4 1.4.1 1-.2 2-.9 2.8-.7.8-1.7 1.3-3 1.4-1.2.1-2.3-.2-3.1-.8-1-.7-1.4-1.6-1.5-2.7zm3.2-.3c.1.8.2 1.4.4 1.7.2.3.4.4.8.4.3 0 .6-.2.7-.5.1-.3.2-.9.1-1.7-.1-.8-.2-1.4-.4-1.7-.2-.3-.4-.4-.8-.4-.3 0-.6.2-.7.5-.1.3-.2.9-.1 1.7zM115.7 24.1l-4-.6.3-1.8.6.1.6-3.9-.6-.1.3-1.8 4 .6c.4.1.7.1 1 .2.3.1.6.1.8.2l.6.2c.5.2.9.5 1.2.9.3.4.4.9.3 1.4-.1.4-.2.7-.4 1-.2.3-.5.5-.9.6l.8 1.8.5.1-.3 1.8-2.7-.4-1.2-3.3-.9-.1-.2 1.2.6.1-.4 1.8zm.2-5.9l-.2 1.4h.3c.4.1.7.1.9.1.2 0 .3-.1.4-.2.1-.1.2-.2.2-.4s0-.4-.1-.5c-.1-.1-.2-.2-.4-.3-.2 0-.5-.1-.9-.2l-.2.1zM125.7 26.8l-3.9-1.4.6-1.7.6.2 1.3-3.7-.8-.3-.5 1.3-1.3-.5 1.1-3 7 2.5-1.1 3-1.3-.5.5-1.3-.8-.3-1.3 3.7.6.2-.7 1.8zM131.4 29.8l-3.7-2.1.9-1.6.6.3 1.9-3.4-.6-.3.9-1.6 3.7 2.1-.9 1.6-.6-.3-1.9 3.4.6.3-.9 1.6zM134.2 31.8l-2.4-1.9 1.1-1.4.5.4 2.5-3-.5-.4 1.1-1.4 2.7 2.2-.4 4.7 1.3-1.6-.5-.4 1.1-1.4 2.3 1.9-1.1 1.4-.5-.4-3.4 4.5-1.9-1.6.4-5.5-1.7 2 .5.4-1.1 1.5zM144.4 38.6l-.5-.6 1.1-.9 2.1 2.6c-.6.5-1.2.8-1.5 1-.4.1-.8.2-1.3.2s-1-.2-1.4-.5c-.4-.3-.8-.6-1.2-1.1-.5-.7-.9-1.4-1.1-2.1-.2-.7-.2-1.4.1-2.1.3-.7.7-1.3 1.3-1.7.9-.7 1.9-1 2.9-.8 1 .2 1.9.7 2.6 1.5.6.7.8 1.4.8 2.1l.4-.3 1.1 1.4-2.1 1.6-1.1-1.4c.2-.3.2-.6.2-.9 0-.3-.1-.6-.3-.8-.3-.4-.6-.6-1-.5-.4 0-.9.3-1.5.8s-1 .9-1.1 1.3c-.1.4 0 .7.3 1.1.2.4.6.5 1.2.1z"/></g><g fill="#fff"><path d="M96.6 97.7c.2.4.7.7 1.1.7.8 0 1.2-1.2 1.2-3 0-1.6-.4-2.6-1-3.6s-1.4-2.6-1.4-4.9c0-2.6.8-4.6 2-4.6.5 0 .9.3 1 .6l-.2 1.7c-.2-.3-.5-.6-.9-.6-.7 0-1.1 1.3-1.1 2.5 0 1.7.4 2.4 1.1 3.6.9 1.5 1.3 3.1 1.3 5 0 3-.9 4.9-2.1 4.9-.5 0-1-.4-1.2-.8l.2-1.5zM106.3 92.5c-.1-2.3-.1-4.9-.1-6.9-.2 1.9-.4 4-.6 6.1l-.9 8.2h-.5l-.9-7.9c-.3-2.2-.5-4.4-.6-6.4 0 2.1 0 4.5-.1 7l-.1 7.4h-.8l.4-17.5h.9l.9 8c.3 2.3.4 4 .6 6 .1-2 .3-3.7.6-6l.8-8h.9l.4 17.5h-.8l-.1-7.5zM110.3 94.8l-.5 5.2h-.8l1.7-17.5h.9l1.7 17.5h-.8l-.5-5.2h-1.7zm1.5-1.6l-.4-4.4c-.1-1.2-.2-2.7-.3-4-.1 1.3-.2 2.8-.3 4l-.4 4.4h1.4zM115.3 82.5h.8v15.8h2.1v1.7h-2.9v-17.5zM120.2 82.5h.8v15.8h2.1v1.7h-2.9v-17.5z"/></g><path fill="#fff" d="M151.1 59.8v1.2000000000000002l-.1.4-.1.4-.1.4-.2.4c-.1.1-.1.2-.2.4l-.5.7-.5.6-.5.5-.6.5-1.2.8-.6.3-.6.3c-.4.2-.8.4-1.3.6l-1.3.5c-.4.2-.9.3-1.3.4l-1.3.4c-.9.3-1.7.5-2.6.7l-2.6.6-2.6.6-2.6.6-2.6.6-2.6.6-.6.2-.3.1-.3.1c-.2.1-.4.1-.7.1-.2 0-.4.1-.7.1l-1.3.3-1.3.3-2.6.5-1.3.3-1.3.3-2.6.6c-.8.2-1.7.4-2.6.6-.2.1-.4.1-.6.1-.2 0-.4.1-.6.2-.2.1-.4.1-.6.1l-.6.1-.6.2c-.2 0-.4.1-.6.2l-.6.2c-.2 0-.4.1-.6.2-.4.1-.8.2-1.3.3-.4.1-.8.2-1.3.3l-.6.2-.6.2-.6.2-.6.2-.3.1-.3.1-.6.2-.6.2-.6.2-.6.2-.6.2c-.2.1-.4.2-.6.2-.2.1-.4.2-.6.2l-.3.1-.3.1-.3.1-.3.1c-.2.1-.4.2-.6.2-.2.1-.4.2-.5.3-.4.2-.7.4-1 .5l-.5.3c-.1-1.5-.4-3-.9-4.3-.5-1.3-1.2-2.5-2.1-3.5-.9-1-1.8-1.8-3-2.4-1.1-.6-2.3-.9-3.6-.9-.7 0-1.4.1-2.1.3-.7.2-1.3.4-1.9.8l.5-.5.5-.4c.3-.3.7-.6 1.1-.8.4-.2.7-.5 1-.6.3-.2.6-.3 1-.5l.9-.4.9-.3c.3-.1.6-.2.8-.3.3-.1.6-.2.8-.2l.8-.2.8-.2.8-.2.8-.1c.3 0 .5-.1.7-.1l.7-.1 1.5-.2h4.4l1.4-.1h12.299999999999997l2.7.1c.9 0 1.8.1 2.6.1h1.3c.4 0 .9 0 1.3.1h13c.9 0 1.7 0 2.6-.1l2.6-.1c.9 0 1.7-.1 2.6-.2l1.3-.1c.4 0 .9-.1 1.3-.2s.8-.1 1.3-.2c.4-.1.8-.1 1.3-.2.4-.1.8-.2 1.3-.3.4-.1.8-.2 1.2-.4l.6-.2.6-.2.6-.3.6-.3c.4-.2.7-.5 1-.7l.5-.4.4-.5.3-.5.3-.6.1-.3v-.8c0-.5 0-.9-.1-1.4l-.1-.3-.1-.3-.2-.3c-.1-.1-.1-.2-.2-.2l.4-.5c.2.2.4.4.5.6.1.1.1.2.2.4l.2.4c.1.3.2.5.2.8-.4-.3-.3 0-.3.3"/><g fill="#fff"><path d="M75.3 52.1c-.3.7-.8 2.7-1.5 6h.7c1 0 1.8-.5 2.5-1.5s1-2.3 1-3.9c0-2.4-1-3.5-2.9-3.5-.8 0-1.5.1-2.2.2-.7.2-1.3.3-1.7.5-.4.2-.8.4-1.1.5-.3.2-.6.2-.7.2-.2 0-.4-.1-.4-.4 0-.3.2-.5.5-.8.3-.3.7-.5 1.2-.8.4-.3 1-.5 1.6-.8 1.5-.7 3-1 4.8-1 2.3 0 3.8.7 4.6 2.2.4.8.7 1.8.7 2.9 0 2.2-.6 3.9-1.8 5.3-1 1.2-2.4 2-4 2.3-.5.1-1 .1-1.6.1-.6 0-1.1-.1-1.5-.2-.2 1-.4 1.8-.5 2.3-.1.5-.2.9-.4 1.3-.1.3-.3.6-.5.8-.2.2-.4.3-.6.4-.4.2-.9.2-1.6.2-.7 0-1.3-.1-1.9-.3-.6-.2-1-.5-1.4-.8-.3-.3-.5-.6-.5-.9 0-.2 0-.3.1-.4.1-.1.2-.2.3-.2.5 0 .8-.1 1-.3.2-.2.4-.6.6-1.2.2-.6.4-1.3.6-2.1.2-.8.4-1.5.6-2.2l.6-2.1c.5-1.5 1.1-2.5 1.8-3 .3-.2.8-.4 1.3-.5.5-.1 1-.2 1.3-.2h.6c.1 0 .2 0 .3.1.2.1.3.2.3.5 0 .2 0 .3-.1.4.2.2.1.5-.1.9zM91.8 52.5l3.4.2c.1 0 .2.1.3.2.1.1.1.2.1.4 0 .5-.2 1.4-.5 2.6l-.9 3.5c-.3 1.2-.5 1.9-.5 2.3 0 .4 0 .6.1.7.1.1.2.2.4.2s.6-.2 1.2-.5 1-.6 1.2-.7c.2-.2.4-.2.5-.2.2 0 .3.1.3.4 0 .5-.7 1.3-2.2 2.1-.5.3-1.1.6-1.8.8-.7.2-1.4.3-2.2.3-1.2 0-1.9-.6-2.2-1.7-.8 1.2-1.8 1.7-3.1 1.7-.9 0-1.7-.3-2.3-1-.7-.7-1-1.8-1-3.3 0-1.6.3-3 .9-4.4.7-1.5 1.6-2.5 2.8-3.1.6-.3 1.3-.5 2.1-.5 1.1 0 2 .4 2.6 1.2v-.7c0-.3.3-.5.8-.5zm-3.9 9.4c.9 0 1.7-1.1 2.3-3.2.3-1 .4-1.8.4-2.4s-.1-1-.2-1.3c-.1-.2-.4-.3-.8-.3s-.8.3-1.3.8-.8 1.2-1.1 2.1c-.3.8-.4 1.6-.4 2.3 0 .7.1 1.2.3 1.5.2.3.5.5.8.5zM98.9 52.9l3.5-.1c.1 0 .2.1.3.2.1.1.1.2.1.3 0 .1 0 .3-.1.5 0 .2-.1.5-.1.8-.1.3-.1.5-.1.6.4-.7.9-1.3 1.5-1.8s1.1-.8 1.5-.8c.9 0 1.4.3 1.4.9 0 .6-.1 1.3-.4 2.2-.3.8-.5 1.4-.7 1.7-.1.1-.2.2-.4.2s-.3-.1-.4-.2c-.6-.7-1.3-1-2-1-.3 0-.5 0-.7.1-.2 1-.5 2.4-.9 4.4-.4 1.9-.7 3-.7 3.2-.1.3-.2.5-.4.5-.7 0-1.5.1-2.3.2-.8.1-1.3.2-1.4.2-.1 0-.2 0-.3-.1-.1-.1-.1-.2-.1-.4 0-.1.1-.6.3-1.5.2-.9.4-1.8.7-2.8.3-1 .5-2.1.7-3.2.2-1.2.3-2.1.3-2.9v-.4c-.1-.6.2-.8.7-.8zM113.6 53l2-.4c.4 0 .5.2.5.6 0 .4-.2.7-.5.8-.3.1-1.1.2-2.4.4-.2.7-.4 1.6-.8 2.7-.7 2.4-1 3.8-1 4.3s.2.8.7.8c1.4 0 2.7-.3 3.8-1.1.2-.1.3-.2.4-.2.2 0 .3.1.3.4 0 .2-.1.5-.4.7-.7.7-1.8 1.3-3.3 1.8-1.5.5-2.8.7-4.1.7-.7 0-1.2-.2-1.6-.5-.4-.3-.6-.8-.6-1.4 0-.6.3-1.7.8-3.3.6-1.8 1-3.4 1.2-4.7h-.6c-.3 0-.4-.2-.4-.5s0-.4.1-.5c.1-.1.2-.2.3-.2l.3-.1h.6c.1-.6.1-1.1.1-1.6v-.4c0-.3.3-.6.8-.7.2 0 .8-.2 1.8-.6 1-.3 1.6-.5 1.8-.5.4 0 .5.2.5.6 0 .9-.1 1.8-.3 2.9zM130.2 61.1c.2 0 .3.1.3.4 0 .3-.1.5-.3.7-.2.2-.4.4-.8.7-.4.2-.8.5-1.3.8-.5.3-1.1.5-1.8.8-.7.2-1.3.3-2 .3-1.5 0-2.2-.5-2.2-1.5 0-.6.2-1.8.7-3.5.5-1.7.7-2.8.7-3.4 0-.7-.3-1-1-1-.3 0-.7.1-1.1.2-.2 1-.5 2.6-1 4.7-.5 2.2-.8 3.4-.8 3.7-.1.3-.2.4-.4.4l-3.8.1c-.1 0-.1 0-.2-.1s-.1-.2-.1-.4c0-.1.1-.6.3-1.5.2-.8.4-1.7.7-2.7.3-1 .5-2 .7-3.2.2-1.1.3-2.1.3-2.9v-.4c0-.4.2-.6.7-.6l3.5-.1c.1 0 .2.1.3.2.1.1.1.3.1.4s0 .4-.1.8c1.7-1.1 3.2-1.6 4.3-1.6.5 0 .9.2 1.3.6.4.4.7 1.1.7 2 0 .9-.2 2.1-.7 3.6-.5 1.5-.7 2.4-.7 2.7 0 .7.2 1 .6 1 .2 0 .6-.1 1.2-.4l1.2-.6.7-.2zM141.7 61.1c.2 0 .3.1.3.4 0 .2-.1.5-.4.7-.2.2-.5.4-.9.7-.3.2-.8.5-1.4.8-1.4.7-3 1.1-4.8 1.1-3.4 0-5-1.5-5-4.6 0-1.5.3-2.8 1-4 .6-1.2 1.5-2.1 2.6-2.7 1.1-.6 2.2-.9 3.5-.9 1.3 0 2.2.3 2.8.9.6.6.9 1.4.9 2.4s-.3 1.9-.8 2.6c-.6.7-1.3 1.2-2.2 1.5-.9.3-2 .6-3.2.7.1 1.1.6 1.9 1.7 2.1.3.1.5.1.8.1 1.2 0 2.8-.5 5-1.6-.1-.1 0-.2.1-.2zm-7.8-1.8c.9-.4 1.5-.9 2-1.6.5-.7.8-1.6.8-2.6 0-.3-.1-.5-.2-.7-.1-.2-.3-.2-.5-.2s-.5.2-.8.5c-.3.3-.5.7-.7 1.2-.3 1-.6 2.2-.6 3.4zM143.4 52.9l3.5-.1c.1 0 .2.1.3.2.1.1.1.2.1.3 0 .1 0 .3-.1.5 0 .2-.1.5-.1.8-.1.3-.1.5-.1.6.4-.7.9-1.3 1.5-1.8s1.1-.8 1.5-.8c.9 0 1.4.3 1.4.9 0 .6-.1 1.3-.4 2.2-.3.8-.5 1.4-.7 1.7-.1.1-.2.2-.4.2s-.3-.1-.4-.2c-.6-.7-1.3-1-2-1-.3 0-.5 0-.7.1-.2 1-.5 2.4-.9 4.4-.4 1.9-.7 3-.7 3.2-.1.3-.2.5-.4.5-.7 0-1.5.1-2.3.2-.8.1-1.3.2-1.4.2-.1 0-.2 0-.3-.1-.1-.1-.1-.2-.1-.4 0-.1.1-.6.3-1.5.2-.9.4-1.8.7-2.8.3-1 .5-2.1.7-3.2.2-1.2.3-2.1.3-2.9v-.4c-.1-.6.2-.8.7-.8z"/></g></g></svg>