<svg xmlns="http://www.w3.org/2000/svg" xmlns:xlink="http://www.w3.org/1999/xlink" viewBox="0 0 220 120" enable-background="new 0 0 220 120"><g><defs><path id="a" d="M54.3 4.9h111.4v110.2h-111.4z"/></defs><clipPath id="b"><use xlink:href="#a" overflow="visible"/></clipPath><path clip-path="url(#b)" fill="#630055" d="M54.6 88.6l.2-.6h.5-.5l-.2.6-.3-.2v-56.8l55.7-26.7 55.7 26.7v56.8l-55.7 26.7-55.4-26.5zm55.4 25.1l54.7-26.2v-55l-54.7-26.3-54.7 26.3v55.1l54.7 26.1z"/><defs><path id="c" d="M56.4 7.8h107.2v104.4h-107.2z"/></defs><clipPath id="d"><use xlink:href="#c" overflow="visible"/></clipPath><path clip-path="url(#d)" fill="#630055" d="M56.7 86.6l.2-.6h.5-.5l-.2.6-.3-.2v-53l53.6-25.6 53.6 25.7v53l-53.6 25.7-53.3-25.6zm53.3 24.2l52.6-25.2v-51.2l-52.6-25.3-52.6 25.3v51.2l52.6 25.2z"/><path fill="#630055" d="M58.3 35.2l51.7-24.8 51.7 24.8v49.6l-51.7 24.8-51.7-24.8z"/><path fill="#fff" d="M83.3 50.9h20v.5h-20zM116.7 50.9h20v.5h-20zM114.9 50.5c.7-.8 1.3-1.4 1.2-2.3-.1-.9-.6-1.8-1.9-1.8-1.2 0-3.2 1.4-3.5 4h-.6c0-.5.1-1 .2-1.5.3-1.4 1.3-2.3 1.3-3.6 0-1.3-.5-1.7-1-2.4-.5-.6-.7-1.1-.7-1.1s-.2.5-.7 1.1c-.5.6-1 1.1-1 2.4 0 1.3 1 2.2 1.3 3.6.1.5.2 1.1.2 1.5h-.6c-.3-2.7-2.2-4-3.5-4-1.3 0-1.8.9-1.9 1.8-.1.9.5 1.5 1.2 2.3.7.8.5 1.3-.4 1.4 1 .6 1.9-.2 1.9-1 0-.9-.8-1.4-.8-1.9-.1-.5.3-1.1 1-1 1.4.2 1.9 1.6 2 2.5h-.3c-.3 0-.5.2-.5.4s.2.4.5.4h.4c0 1.1-.4 1.7-.9 1.7s-.6-.5-.3-.5c-.3-.6-1.1-.4-1.3.2-.1.6.4 1.1 1 1.2.6 0 1.7-.1 1.9-2.5h.6c0 .2 0 .8-.3 1.8-.4 1.1-.2 1.4.4 2.4.7-.9.8-1.3.4-2.4-.3-.9-.3-1.6-.3-1.8h.6c.2 2.4 1.3 2.6 1.9 2.5.6 0 1.1-.6 1-1.2-.1-.5-.9-.8-1.3-.2.3.1.3.6-.3.5-.5 0-.8-.7-.9-1.7h.5c.3 0 .5-.2.5-.4s-.2-.4-.5-.4h-.4c.1-.9.7-2.3 2-2.5.7-.1 1 .5 1 1-.1.5-.8 1-.8 1.9 0 .9.8 1.7 1.9 1-.7-.1-.9-.6-.2-1.4"/><g fill="#FE5901"><path d="M74.5 67.9c0 .4 0 .5-.2.9 3.1 0 4.8-1.1 4.8-3.2 0-1.8-1.7-2.9-4.7-2.9-2.1 0-4.1.4-6.2 1.4l.4-3.9c1.9-.7 4-1.1 6-1.1 4.9 0 8.1 2.5 8.1 6.4 0 4.1-3.2 6.8-8.3 6.9h-.4l-.6 5.2h-3.7l1.6-13.7h3.7l-.5 4zM95.2 65.8l-.7 6.5c0 .5-.1.7-.1 1 0 .6.2.8.7.8.4 0 .7-.1 1.4-.4l-.5 3.3c-.8.5-1.4.7-2.2.7-1.2 0-2-.5-2.7-1.6-1.2 1.4-2.3 1.9-3.9 1.9-2.5 0-4.1-1.8-4.1-4.6 0-4.1 2.8-7.8 5.8-7.8 1 0 1.6.2 2.7 1.1h.1l-.1-.3v-.4h3.6zm-5.5 3.3c-1.5 0-2.9 2-2.9 4 0 .9.5 1.6 1.2 1.6 1.1 0 2.2-1.5 3.3-4.3-.4-.9-1-1.3-1.6-1.3zM96.9 75.1c.3-.8.6-1.5 1-3 .4-1.4.5-1.9.7-2.7-.5-.7-.6-1-.6-1.7 0-.9.3-1.8.8-2.9h.9c.9 0 1.5 0 2 .2l.2 1.4h1.6c1.7 0 2.6-.1 3.8-.4l-1.1 6.4-.1.7v.7c0 .5.2.8.6.8.5 0 .9-.1 1.4-.4l-.4 3.3c-.8.4-1.5.6-2.3.6-1.7 0-2.8-1.3-2.8-3.4 0-.5 0-.9.2-2.1l.3-1.9c0-.4.1-.5.2-.9h-1.9c-.5 2.3-1 3.8-1.6 5.4l-2.9-.1zM115.5 69.2h-1.9l-.3 3c0 .4-.1 1.2-.1 1.4 0 .5.2.8.7.8.4 0 .8-.1 1.8-.7l-.4 3.3c-1 .6-1.8.9-2.7.9-1.7 0-2.9-1.3-2.9-3.3 0-.6 0-1 .1-1.7l.3-3c0-.4 0-.5.1-.8h-1.6l.4-3.4h1.5l.5-4.1h3.4l-.4 3.4c0 .4 0 .5-.1.8h1.9000000000000001l-.3 3.4zM121.2 65.8l-.1 1c0 .4-.1.7-.4 1.4h.1c1.5-2.1 2.8-2.9 4.3-2.9 1.7 0 2.9 1.2 2.9 2.8 0 .3 0 1.1-.1 1.4l-.3 2.5c-.1.7-.1 1-.1 1.2 0 .7.2.9.8.9.4 0 .9-.2 1.3-.5l-.4 3.3c-.6.4-1.6.7-2.3.7-1.8 0-3-1.2-3-3.1v-.8l.1-.7.2-1.9c0-.2 0-.4.1-.5v-.4c0-.5-.1-.7-.5-.7-.5 0-1.1.6-1.9 1.8-1 1.6-1.7 3.4-2.1 6.1h-3.5l1.3-11.7h3.6zM141.1 76.5c-1.7 1-3.5 1.5-5.1 1.5-3.3 0-5.5-2.2-5.5-5.6 0-3.7 2.8-6.9 6.2-6.9 2.3 0 4.1 1.7 4.1 3.9 0 2.5-2 3.9-6.3 4.4v.1c.5.6 1.1.8 2 .8 1.5 0 3.4-.7 5.2-1.9l-.6 3.7zm-4.1-7.2c0-.3-.3-.6-.6-.6-.8 0-1.9 1.1-2.2 2.4 1.4-.1 2.8-.9 2.8-1.8zM142 75.1c.3-.8.6-1.5 1-3 .4-1.4.5-1.9.7-2.7-.5-.7-.6-1-.6-1.7 0-.9.3-1.8.8-2.9h.9c.9 0 1.5 0 2 .2l.2 1.4h1.6c1.7 0 2.6-.1 3.8-.4l-1.1 6.4-.1.7v.7c0 .5.2.8.6.8.5 0 .9-.1 1.4-.4l-.4 3.3c-.8.4-1.5.6-2.3.6-1.7 0-2.8-1.3-2.8-3.4 0-.5 0-.9.2-2.1l.3-1.9c0-.4.1-.5.2-.9h-1.9c-.5 2.3-1 3.8-1.6 5.4l-2.9-.1z"/></g><g fill="#fff" stroke="#630055" stroke-width=".5" stroke-miterlimit="10"><path d="M73.2 66.6c0 .4 0 .5-.2.9 3.1 0 4.8-1.1 4.8-3.2 0-1.8-1.7-2.9-4.7-2.9-2.1 0-4.1.4-6.2 1.4l.4-3.9c1.9-.7 4-1.1 6-1.1 4.9 0 8.1 2.5 8.1 6.4 0 4.1-3.2 6.8-8.3 6.9h-.6l-.6 5.2h-3.7l1.6-13.7h3.7l-.3 4zM93.8 64.5l-.7 6.5c0 .5-.1.7-.1 1 0 .6.2.8.7.8.4 0 .7-.1 1.4-.4l-.4 3.2c-.8.5-1.4.7-2.2.7-1.2 0-2-.5-2.7-1.6-1.2 1.4-2.3 1.9-3.9 1.9-2.5 0-4.1-1.8-4.1-4.6 0-4.1 2.8-7.8 5.8-7.8 1 0 1.6.2 2.7 1.1h.1l-.1-.3v-.4h3.5zm-5.5 3.3c-1.5 0-2.9 2-2.9 4 0 .9.5 1.6 1.2 1.6 1.1 0 2.2-1.5 3.3-4.3-.4-.9-.9-1.3-1.6-1.3zM95.6 73.8c.3-.8.6-1.5 1-3 .4-1.4.5-1.9.7-2.7-.5-.7-.6-1-.6-1.7 0-.9.3-1.8.8-2.9h.9c.9 0 1.5 0 2 .2l.2 1.4h1.6c1.7 0 2.6-.1 3.8-.4l-1.1 6.4-.1.7v.7c0 .5.2.8.6.8.5 0 .9-.1 1.4-.4l-.4 3.3c-.8.4-1.5.6-2.3.6-1.7 0-2.8-1.3-2.8-3.4 0-.5 0-.9.2-2.1l.3-1.9c0-.4.1-.5.2-.9h-1.9c-.5 2.3-1 3.8-1.6 5.4l-2.9-.1zM114.2 67.9h-1.9l-.3 3c0 .4-.1 1.2-.1 1.4 0 .5.2.8.7.8.4 0 .8-.1 1.8-.7l-.4 3.3c-1 .6-1.8.9-2.7.9-1.7 0-2.9-1.3-2.9-3.3 0-.6 0-1 .1-1.7l.3-3c0-.4 0-.5.1-.8h-1.6l.4-3.4h1.5l.5-4.1h3.4l-.4 3.4c0 .4 0 .5-.1.8h1.9000000000000001l-.3 3.4zM119.9 64.5l-.1 1c0 .4-.1.7-.4 1.4h.1c1.5-2.1 2.8-2.9 4.3-2.9 1.7 0 2.9 1.2 2.9 2.8 0 .3 0 1.1-.1 1.4l-.3 2.5c-.1.7-.1 1-.1 1.2 0 .7.2.9.8.9.4 0 .9-.2 1.3-.5l-.4 3.3c-.6.4-1.6.7-2.3.7-1.8 0-3-1.2-3-3.1v-.8l.1-.7.3-1.7c0-.2 0-.4.1-.5v-.4c0-.5-.1-.7-.5-.7-.5 0-1.1.6-1.9 1.8-1 1.6-1.7 3.4-2.1 6.1h-3.5l1.3-11.7h3.5zM139.8 75.1c-1.7 1-3.5 1.5-5.1 1.5-3.3 0-5.5-2.2-5.5-5.6 0-3.7 2.8-6.9 6.2-6.9 2.3 0 4.1 1.7 4.1 3.9 0 2.5-2 3.9-6.3 4.4v.1c.5.6 1.1.8 2 .8 1.5 0 3.4-.7 5.2-1.9l-.6 3.7zm-4.1-7.2c0-.3-.3-.6-.6-.6-.8 0-1.9 1.1-2.2 2.4 1.4 0 2.8-.8 2.8-1.8zM140.7 73.8c.3-.8.6-1.5 1-3 .4-1.4.5-1.9.7-2.7-.5-.7-.6-1-.6-1.7 0-.9.3-1.8.8-2.9h.9c.9 0 1.5 0 2 .2l.2 1.4h1.6c1.7 0 2.6-.1 3.8-.4l-1.1 6.4-.1.7v.7c0 .5.2.8.6.8.5 0 .9-.1 1.4-.4l-.4 3.3c-.8.4-1.5.6-2.3.6-1.7 0-2.8-1.3-2.8-3.4 0-.5 0-.9.2-2.1l.3-1.9c0-.4.1-.5.2-.9h-1.9c-.5 2.3-1 3.8-1.6 5.4l-2.9-.1z"/></g><g fill="#FE5901"><path d="M70.5 43.5l.8-.9 2 1.8-.8.9c-.9-.4-1.7-.3-2.3.4-.5.5-.6 1.1-.5 1.7.1.6.5 1.1 1 1.6s1.1.7 1.7.8c.6 0 1.1-.2 1.5-.6.3-.4.5-.8.5-1.3s-.2-1-.6-1.5l1.5-.6c1 1.6.8 3-.4 4.4-.9 1-1.8 1.4-2.8 1.4-1 0-1.9-.4-2.7-1.1-.6-.5-1-1.1-1.2-1.8s-.3-1.3-.1-1.9c.2-.6.5-1.2.9-1.7.6-.6 1.2-1 2-1.1l-.5-.5zM76.2 38.4c1-.8 2-1 3-.9 1 .2 1.9.7 2.5 1.5.7.9.9 1.8.8 2.8-.1 1-.7 1.9-1.6 2.7-1 .8-2 1.1-3.1.9-1-.2-1.8-.7-2.5-1.5-.7-.9-.9-1.8-.8-2.8s.7-2 1.7-2.7zm.8 1.1c-.4.3-.7.8-.7 1.4 0 .6.2 1.2.7 1.9.5.6 1 1 1.5 1.1s1.1 0 1.5-.3c.4-.3.7-.8.7-1.4 0-.6-.2-1.2-.7-1.9-.4-.6-1-.9-1.5-1.1-.5-.2-1-.1-1.5.3zM84.6 41.7l-.6-1.1.9-.4-2.3-4.5-.9.4-.5-1.1 2.7-1.4 4.5 3-1.6-3.1-.8.5-.6-1.1 2.9-1.4.6 1.1-.9.4 2.9 5.7-1.4.7-5.3-3.6 1.9 3.8.8-.4.6 1.1-2.9 1.4zM93.3 37.7l-.4-1.2 1-.3-1.5-4.8-1 .3.5 1.7-1.2.4-.9-2.9 6.2-1.9.9 2.9-1.2.4-.5-1.7-1.1.3 1.5 4.8 1-.3.4 1.2-3.7 1.1zM106 33.6l.2 1.3-2.2.3-2.1-3-.8.1.3 2 .9-.1.2 1.3-3.7.5-.2-1.3 1-.1-.7-5-1 .1-.2-1.3 4.3-.6c.8-.1 1.4 0 1.8.4s.7.8.8 1.4c.1.9-.2 1.5-1 2l1.5 2.1.9-.1zm-5-2.5l.6-.1c.8-.1 1.1-.5 1-1.1 0-.3-.2-.5-.4-.6-.2-.1-.5-.2-.8-.1l-.8.1.4 1.8zM106.4 35v-1.3h1.1l-.1-5h-1.1v-1.3l4.1-.1v1.3h-1.1l.1 5h1.1v1.3l-4.1.1zM111 34.8l.1-1.3.9.1.5-5-.9-.1.1-1.3 3.3.3c.7.1 1.3.2 1.6.3s.6.4.8.7c.2.4.3.8.3 1.2-.1.7-.5 1.2-1.2 1.5.8.4 1.2 1.1 1.1 1.9 0 .5-.2.9-.5 1.2-.3.3-.7.5-1.1.6-.4.1-1 .1-1.8 0l-3.2-.1zm2.9-1l.5.1c.5 0 .8 0 1-.1.2-.1.3-.4.4-.7 0-.4 0-.7-.2-.8-.2-.2-.5-.3-.9-.3l-.5-.1-.3 1.9zm.3-3.3l.5.1c.4 0 .6 0 .8-.1s.3-.3.3-.7c0-.3 0-.5-.2-.7-.2-.1-.4-.2-.9-.3h-.5v1.7zM119.5 29.4l.3-1.2 3.3.8-.3 1.2-.7-.2-.8 3.3c-.1.4-.2.8-.2 1s0 .4.2.6c.1.2.3.3.5.3.2.1.4 0 .6 0s.3-.2.4-.4c.1-.2.2-.5.3-1.1l.8-3.2-.7-.2.3-1.2 2.8.7-.3 1.2-.9-.2-.9 3.7c-.1.5-.2.9-.3 1.1-.1.2-.3.4-.5.6-.2.2-.5.3-.9.3-.4.1-.8 0-1.2-.1-.5-.1-.9-.3-1.3-.6s-.5-.5-.7-.8c-.1-.3-.2-.6-.2-.8 0-.3.1-.7.2-1.3l.8-3.3-.6-.2zM126.2 37.8l.5-1.2 1 .4 1.9-4.6-1-.4-.7 1.6-1.1-.5 1.2-2.8 6 2.5-1.2 2.8-1.1-.5.7-1.6-1-.4-1.9 4.6 1 .4-.5 1.2-3.8-1.5zM131.5 40.2l.6-1.1.9.5 2.5-4.3-.9-.5.6-1.1 3.5 2-.6 1.1-1-.5-2.5 4.3 1 .5-.6 1.1-3.5-2zM135.4 42.4l.8-1 .8.6 3.1-4-.8-.6.8-1 2.4 1.9-.8 5.3 2.1-2.7-.7-.6.8-1 2.5 2-.8 1-.8-.6-3.9 5-1.3-1 1-6.3-2.6 3.4.7.6-.8 1-2.5-2zM147 49.3l1-.8 2.2 2.5c-.7.6-1.3 1-2 1.1-.6.1-1.2.1-1.9-.2-.6-.2-1.2-.7-1.7-1.2-.9-1-1.2-2-1.1-3 .1-1 .6-1.9 1.4-2.6.6-.5 1.2-.8 1.9-1 .7-.1 1.3-.1 1.9.1s1.1.6 1.6 1.1c.6.7.9 1.4.9 2.2l.5-.4.8.9-2 1.8-.8-.9c.3-.4.4-.8.3-1.3-.1-.5-.2-.8-.5-1.2-.4-.4-.9-.7-1.4-.7-.6 0-1.2.2-1.7.7-.6.6-1 1.2-1.1 1.8-.1.6.1 1.1.5 1.6.3.3.6.5 1 .6.4.1.7 0 1.1-.2l-.9-.9z"/></g><g fill="#fff" stroke="#630055" stroke-width=".5" stroke-miterlimit="10"><path d="M70.5 42.4l.8-.9 2 1.8-.8.9c-.9-.4-1.7-.3-2.3.4-.5.5-.6 1.1-.5 1.7.1.6.5 1.1 1 1.6s1.1.7 1.7.8c.6 0 1.1-.2 1.5-.6.3-.4.5-.8.5-1.3s-.2-1-.6-1.5l1.5-.6c1 1.6.8 3-.4 4.4-.9 1-1.8 1.4-2.8 1.4-1 0-1.9-.4-2.7-1.1-.6-.5-1-1.1-1.2-1.8s-.3-1.3-.1-1.9c.2-.6.5-1.2.9-1.7.6-.6 1.2-1 2-1.1l-.5-.5zM76.2 37.3c1-.8 2-1 3-.9 1 .2 1.9.7 2.5 1.5.7.9.9 1.8.8 2.8-.1 1-.7 1.9-1.6 2.7-1 .8-2 1.1-3.1.9-1-.2-1.8-.7-2.5-1.5-.7-.9-.9-1.8-.8-2.8s.7-2 1.7-2.7zm.8 1.1c-.4.3-.7.8-.7 1.4 0 .6.2 1.2.7 1.9.5.6 1 1 1.5 1.1s1.1 0 1.5-.3c.4-.3.7-.8.7-1.4 0-.6-.2-1.2-.7-1.9-.4-.6-1-.9-1.5-1.1-.5-.2-1-.1-1.5.3zM84.6 40.6l-.6-1.2.9-.4-2.3-4.5-.8.5-.6-1.1 2.7-1.4 4.5 3-1.6-3.1-.8.4-.6-1.1 2.9-1.4.6 1.1-.9.4 2.9 5.7-1.4.7-5.3-3.6 1.9 3.8.8-.4.6 1.1-2.9 1.5zM93.3 36.6l-.4-1.2 1-.3-1.5-4.8-1 .3.5 1.7-1.2.4-.9-2.9 6.2-1.9.9 2.9-1.1.2-.5-1.7-1.1.3 1.5 4.8 1-.3.4 1.2-3.8 1.3zM106 32.5l.2 1.3-2.2.3-2.1-3-.8.1.3 2 .9-.1.2 1.3-3.7.6-.2-1.3 1-.1-.7-5-1 .1-.2-1.3 4.3-.6c.8-.1 1.4 0 1.8.4s.7.8.8 1.4c.1.9-.2 1.5-1 2l1.5 2.1.9-.2zm-5-2.6l.6-.1c.8-.1 1.1-.5 1-1.1 0-.3-.2-.5-.4-.6-.2-.1-.5-.2-.8-.1l-.8.1.4 1.8zM106.4 33.8v-1.3h1.1l-.1-5h-1.1v-1.3l4.1-.1v1.3h-1.1l.1 5h1.1v1.3l-4.1.1zM111 33.7l.1-1.3.9.1.5-5-.9-.1.1-1.3 3.3.3c.7.1 1.3.2 1.6.3s.6.4.8.7c.2.4.3.8.3 1.2-.1.7-.5 1.2-1.2 1.5.8.4 1.2 1.1 1.1 1.9 0 .5-.2.9-.5 1.2-.3.3-.7.5-1.1.6-.4.1-1 .1-1.8 0l-3.2-.1zm2.9-1l.5.1c.5 0 .8 0 1-.1.2-.1.3-.4.4-.7 0-.4 0-.7-.2-.8-.2-.2-.5-.3-.9-.3l-.5-.1-.3 1.9zm.3-3.3l.5.1c.4 0 .6 0 .8-.1s.3-.3.3-.7c0-.3 0-.5-.2-.7-.2-.1-.4-.2-.9-.3h-.5v1.7zM119.5 28.3l.3-1.2 3.3.8-.3 1.2-.7-.2-.8 3.3c-.1.4-.2.8-.2 1s0 .4.2.6c.1.2.3.3.5.3.2.1.4 0 .6 0s.3-.2.4-.4c.1-.2.2-.5.3-1.1l.8-3.2-.7-.2.3-1.2 2.8.7-.3 1.2-.9-.2-.9 3.7c-.1.5-.2.9-.3 1.1-.1.2-.3.4-.5.6-.2.2-.5.3-.9.3-.4.1-.8 0-1.2-.1-.5-.1-.9-.3-1.3-.6s-.5-.5-.7-.8c-.1-.3-.2-.6-.2-.8 0-.3.1-.7.2-1.3l.8-3.3-.6-.2zM126.2 36.7l.5-1.2 1 .4 1.9-4.6-1-.4-.7 1.6-1.1-.5 1.2-2.8 6 2.5-1.2 2.8-1.1-.5.7-1.6-1-.4-1.9 4.6 1 .4-.5 1.2-3.8-1.5zM131.5 39l.6-1.1.9.5 2.5-4.3-.9-.5.6-1.1 3.5 2-.6 1.1-1-.5-2.5 4.3 1 .5-.6 1.1-3.5-2zM135.4 41.2l.8-1 .8.6 3.1-4-.8-.6.8-1 2.4 1.9-.8 5.3 2.1-2.7-.7-.6.8-1 2.5 2-.8 1-.8-.6-3.9 5-1.3-1 1-6.3-2.6 3.4.7.6-.8 1-2.5-2zM147 48.2l1-.8 2.2 2.5c-.7.6-1.3 1-2 1.1-.6.1-1.2.1-1.9-.2-.6-.2-1.2-.7-1.7-1.2-.9-1-1.2-2-1.1-3 .1-1 .6-1.9 1.4-2.6.6-.5 1.2-.8 1.9-1 .7-.1 1.3-.1 1.9.1s1.1.6 1.6 1.1c.6.7.9 1.4.9 2.2l.5-.4.8.9-2 1.8-.8-.9c.3-.4.4-.8.3-1.3-.1-.5-.2-.8-.5-1.2-.4-.4-.9-.7-1.4-.7-.6 0-1.2.2-1.7.7-.6.6-1 1.2-1.1 1.8-.1.6.1 1.1.5 1.6.3.3.6.5 1 .6.4.1.7 0 1.1-.2l-.9-.9z"/></g><g fill="#fff"><path d="M99.6 87.5c-.1-.8-.2-1.1-.4-1.6-.2-.4-.5-.7-.7-.7-.4 0-.7.5-.7 1.2 0 .6.1.9.6 1.4l.9.9c.4.4.7 1.2.7 2.1 0 1.5-.6 2.6-1.5 2.6-.3 0-.5-.1-.8-.3-.1-.1-.2-.1-.2-.1-.1 0-.1.1-.2.4h-.3v-3h.2c.1.9.2 1.3.4 1.7.2.6.5.9.9.9.5 0 .8-.5.8-1.4 0-.4-.1-.8-.3-1.1l-.7-.8c-.7-.6-1-1.3-1-2.5 0-1.5.5-2.4 1.3-2.4.2 0 .4.1.7.3.1.1.2.1.3.1.1 0 .1-.1.2-.4h.2v2.6h-.4zM104.9 93.2v-.3c.4-.1.5-.3.5-1v-5.9l-1.5 7.3h-.2l-1.5-7.1v5.6c0 .9.1 1.2.6 1.2v.3h-1.4v-.3c.5-.1.5-.2.5-1v-5.6c0-.6-.1-.8-.5-.9v-.3h1.5l1.2 5.7 1.2-5.7h1.5v.3c-.4.1-.5.3-.5 1.2v5.1c0 .9 0 1.1.5 1.2v.3h-1.9zM110.4 93.2v-.3h.2c.2 0 .3-.1.3-.4s-.1-.7-.3-1.6h-1.3l-.1.4c-.1.4-.2.9-.2 1.2 0 .3.1.4.5.5v.3h-1.2v-.3c.3-.1.4-.3.6-1.4l1.3-6.5h.2l1.3 6.3c.3 1.5.4 1.7.7 1.7v.3h-2zm-.5-5.7l-.6 2.9h1.2l-.6-2.9zM117.3 93.2h-3.5v-.3c.4-.1.5-.2.5-.9v-5.7c0-.7-.1-.9-.5-.9v-.3h2.1v.3c-.5 0-.6.2-.6 1.2v5.6c0 .5.1.7.5.7.5 0 .8-.2 1-.7.2-.4.4-.9.5-1.7h.2l-.2 2.7zM122.5 93.2h-3.5v-.3c.4-.1.5-.2.5-.9v-5.7c0-.7-.1-.9-.5-.9v-.3h2.1v.3c-.5 0-.6.2-.6 1.2v5.6c0 .5.1.7.5.7.5 0 .8-.2 1-.7.2-.4.4-.9.5-1.7h.2l-.2 2.7z"/></g></g></svg>