<svg xmlns="http://www.w3.org/2000/svg" xmlns:xlink="http://www.w3.org/1999/xlink" viewBox="0 0 220 120" enable-background="new 0 0 220 120"><g><path fill="#fff" d="M158 66.6c-1.2-.3-2.2-.6-2.8-1-.6-.4-1.1-.9-1.3-1.5-.3-.6-.4-1.4-.3-2.3 0-.9.1-2 .3-3.3.3-1.9.5-3.4.6-4.5.1-1.1.3-2.2.4-3.1.1-.9.3-2 .4-3.1.2-1.1.3-2.5.5-4.3.3-2.3.2-4.2-.5-5.6-.6-1.5-1.5-2.6-2.7-3.4-1.2-.8-2.5-1.3-4.1-1.5-1.5-.2-2.9-.2-4.4.1.1-1 0-2.1-.1-3.1-.2-1.5-.7-2.9-1.5-4.1-.8-1.2-1.9-2.1-3.4-2.7-1.5-.6-3.3-.8-5.6-.5-1.8.2-3.2.4-4.3.5-1.1.2-2.1.3-3.1.4-1 .1-2 .3-3.1.4-1.1.1-2.6.3-4.5.6-1.3.2-2.4.2-3.3.3-.9 0-1.6-.1-2.3-.3-.6-.3-1.1-.7-1.5-1.3-.4-.6-.7-1.6-1-2.8v-.1h-1.1v.1c-.3 1.2-.6 2.2-1 2.8-.4.6-.9 1.1-1.5 1.3-.6.3-1.4.4-2.3.3-.9 0-2-.1-3.3-.3-1.9-.3-3.4-.4-4.5-.6-1.1-.1-2.2-.3-3.1-.4-.9-.1-2-.3-3.1-.4-1.1-.2-2.5-.3-4.3-.5-2.3-.3-4.2-.2-5.6.5-1.5.6-2.6 1.5-3.4 2.7-.8 1.2-1.3 2.5-1.5 4.1-.1 1-.2 2.1-.1 3.1-1.4-.2-2.9-.2-4.3 0-1.5.2-2.9.7-4.1 1.5-1.2.8-2.1 1.9-2.7 3.4-.6 1.5-.8 3.3-.5 5.6.2 1.8.4 3.2.5 4.3.2 1.1.3 2.1.4 3.1.1 1 .3 2 .4 3.1.1 1.1.3 2.6.6 4.5.2 1.3.2 2.4.3 3.3 0 .9-.1 1.6-.3 2.3-.3.6-.7 1.1-1.3 1.5-.6.4-1.6.7-2.8 1h-.1v1.1h.3c1.2.3 2.2.6 2.8 1 .6.4 1.1.9 1.3 1.5.3.6.4 1.4.3 2.3 0 .9-.1 2-.3 3.3-.3 1.9-.4 3.4-.6 4.5-.1 1.1-.3 2.2-.4 3.1-.1.9-.3 2-.4 3.1-.2 1.1-.3 2.5-.5 4.3-.3 2.3-.2 4.2.5 5.6.6 1.5 1.5 2.6 2.7 3.4 1.2.8 2.5 1.3 4.1 1.5 1.5.2 2.9.2 4.4-.1-.1 1 0 2 .1 3 .2 1.5.7 2.9 1.5 4.1.8 1.2 1.9 2.1 3.4 2.7 1.5.6 3.3.8 5.6.5 1.8-.2 3.2-.4 4.3-.5 1.1-.2 2.1-.3 3.1-.4 1-.1 2-.3 3.1-.4 1.1-.1 2.6-.3 4.5-.6 1.3-.2 2.4-.2 3.3-.3.9 0 1.6.1 2.3.3.6.3 1.1.7 1.5 1.3.4.6.7 1.6 1 2.8v.1h1.1v-.1c.3-1.2.6-2.2 1-2.8.4-.6.9-1.1 1.5-1.3.6-.3 1.4-.4 2.3-.3.9 0 2 .1 3.3.3 1.9.3 3.4.4 4.5.6 1.1.1 2.2.3 3.1.4.9.1 2 .3 3.1.4 1.1.2 2.5.3 4.3.5 2.3.3 4.2.2 5.6-.5 1.5-.6 2.6-1.5 3.4-2.7.8-1.2 1.3-2.5 1.5-4.1.1-1 .2-2 .1-3 1.4.2 2.8.2 4.3 0s2.9-.7 4.1-1.5c1.2-.8 2.1-1.9 2.7-3.4.6-1.5.8-3.3.5-5.6-.2-1.8-.4-3.2-.5-4.3-.2-1.1-.3-2.1-.4-3.1-.1-1-.3-2-.4-3.1-.1-1.1-.3-2.6-.6-4.5-.2-1.3-.2-2.4-.3-3.3 0-.9.1-1.6.3-2.3.3-.6.7-1.1 1.3-1.5.6-.4 1.6-.7 2.8-1h.1l-.3-1.1z"/><defs><path id="a" d="M109.5 20.4c-.3 1.3-.6 2.2-1 2.9-.4.6-.9 1.1-1.5 1.3-.6.3-1.4.4-2.3.3-.9 0-2-.1-3.3-.3-1.9-.3-3.4-.4-4.5-.6-1.1-.1-2.2-.3-3.1-.4-.9-.1-2-.3-3.1-.4-1.1-.2-2.5-.3-4.3-.5-2.3-.3-4.2-.2-5.6.5-1.5.6-2.6 1.5-3.4 2.7-.8 1.2-1.3 2.5-1.5 4.1-.1 1-.2 2.1-.1 3.1-1.4-.2-2.9-.2-4.3 0-1.5.2-2.9.7-4.1 1.5-1.2.8-2.1 1.9-2.7 3.4-.6 1.5-.8 3.3-.5 5.6.2 1.8.4 3.2.5 4.3.2 1.1.3 2.1.4 3.1.1 1 .3 2 .4 3.1.1 1.1.3 2.6.6 4.5.2 1.3.2 2.4.3 3.3 0 .9-.1 1.6-.3 2.3-.3.6-.7 1.1-1.3 1.5-.6.4-1.6.7-2.8 1h-.1v1.1h.1c1.2.3 2.2.6 2.8 1 .6.4 1.1.9 1.3 1.5.3.6.4 1.4.3 2.3 0 .9-.1 2-.3 3.3-.3 1.9-.4 3.4-.6 4.5-.1 1.1-.3 2.2-.4 3.1-.1.9-.3 2-.4 3.1-.2 1.1-.3 2.5-.5 4.3-.3 2.3-.2 4.2.5 5.6.6 1.5 1.5 2.6 2.7 3.4 1.2.8 2.5 1.3 4.1 1.5 1.5.2 2.9.2 4.4-.1-.1 1 0 2 .1 3 .2 1.5.7 2.9 1.5 4.1.8 1.2 1.9 2.1 3.4 2.7 1.5.6 3.3.8 5.6.5 1.8-.2 3.2-.4 4.3-.5 1.1-.2 2.1-.3 3.1-.4 1-.1 2-.3 3.1-.4 1.1-.1 2.6-.3 4.5-.6 1.3-.2 2.4-.2 3.3-.3.9 0 1.6.1 2.3.3.6.3 1.1.7 1.5 1.3.4.6.7 1.6 1 2.8v.1h1.1v-.1c.3-1.2.6-2.2 1-2.8.4-.6.9-1.1 1.5-1.3.6-.3 1.4-.4 2.3-.3.9 0 2 .1 3.3.3 1.9.3 3.4.4 4.5.6 1.1.1 2.2.3 3.1.4.9.1 2 .3 3.1.4 1.1.2 2.5.3 4.3.5 2.3.3 4.2.2 5.6-.5 1.5-.6 2.6-1.5 3.4-2.7.8-1.2 1.3-2.5 1.5-4.1.1-1 .2-2 .1-3 1.4.2 2.8.2 4.3 0s2.9-.7 4.1-1.5c1.2-.8 2.1-1.9 2.7-3.4.6-1.5.8-3.3.5-5.6-.2-1.8-.4-3.2-.5-4.3-.2-1.1-.3-2.1-.4-3.1-.1-1-.3-2-.4-3.1-.1-1.1-.3-2.6-.6-4.5-.2-1.3-.2-2.4-.3-3.3 0-.9.1-1.6.3-2.3.3-.6.7-1.1 1.3-1.5.6-.4 1.6-.7 2.8-1h.1v-1.1h-.3c-1.2-.3-2.2-.6-2.8-1-.6-.4-1.1-.9-1.3-1.5-.3-.6-.4-1.4-.3-2.3 0-.9.1-2 .3-3.3.3-1.9.5-3.4.6-4.5.1-1.1.3-2.2.4-3.1.1-.9.3-2 .4-3.1.2-1.1.3-2.5.5-4.3.3-2.3.2-4.2-.5-5.6-.6-1.5-1.5-2.6-2.7-3.4-1.2-.8-2.5-1.3-4.1-1.5-1.5-.2-2.9-.2-4.4.1.1-1 0-2.1-.1-3.1-.2-1.5-.7-2.9-1.5-4.1-.8-1.2-1.9-2.1-3.4-2.7-1.5-.6-3.3-.8-5.6-.5-1.8.2-3.2.4-4.3.5-1.1.2-2.1.3-3.1.4-1 .1-2 .3-3.1.4-1.1.1-2.6.3-4.5.6-1.3.2-2.4.2-3.3.3-.9 0-1.6-.1-2.3-.3-.6-.3-1.1-.7-1.5-1.3-.4-.6-.7-1.6-1-2.8v-.1h-.9z"/></defs><clipPath id="b"><use xlink:href="#a" overflow="visible"/></clipPath><path clip-path="url(#b)" fill="#0B6300" d="M50.6 45.6h118v78.8h-118z"/><path clip-path="url(#b)" fill="#630055" d="M50.6 17.2h1v30h-1zM52.8 17.2h1v30h-1zM55 17.2h1v30h-1zM57.2 17.2h1v30h-1zM59.3 17.2h1v30h-1zM61.5 17.2h1v30h-1zM63.7 17.2h1v30h-1z"/><path clip-path="url(#b)" fill="#0B6300" d="M65.9 17.2h1v30h-1zM68.1 17.2h1v30h-1zM70.2 17.2h1v30h-1zM72.4 17.2h1v30h-1zM74.6 17.2h1v30h-1zM76.8 17.2h1v30h-1zM79 17.2h1v30h-1zM81.2 17.2h1v30h-1zM83.3 17.2h1v30h-1zM85.5 17.2h1v30h-1zM87.7 17.2h1v30h-1zM89.9 17.2h1v30h-1zM92.1 17.2h1v30h-1zM94.2 17.2h1v30h-1zM96.4 17.2h1v30h-1zM98.6 17.2h1v30h-1zM100.8 17.2h1v30h-1zM103 17.2h1v30h-1zM105.2 17.2h1v30h-1zM107.3 17.2h1v30h-1zM109.5 17.2h1v30h-1zM111.7 17.2h1v30h-1zM113.9 17.2h1v30h-1zM116.1 17.2h1v30h-1zM118.2 17.2h1v30h-1zM120.4 17.2h1v30h-1zM122.6 17.2h1v30h-1zM124.8 17.2h1v30h-1zM127 17.2h1v30h-1zM129.2 17.2h1v30h-1zM131.3 17.2h1v30h-1zM133.5 17.2h1v30h-1zM135.7 17.2h1v30h-1zM137.9 17.2h1v30h-1zM140.1 17.2h1v30h-1zM142.3 17.2h1v30h-1zM144.4 17.2h1v30h-1zM146.6 17.2h1v30h-1zM148.8 17.2h1v30h-1zM151 17.2h1v30h-1zM153.2 17.2h1v30h-1z"/><path clip-path="url(#b)" fill="#630055" d="M155.3 17.2h1v30h-1zM157.5 17.2h1v30h-1zM159.7 17.2h1v30h-1zM161.9 17.2h1v30h-1zM164.1 17.2h1v30h-1zM166.3 17.2h1v30h-1zM168.4 17.2h1v30h-1z"/><path fill="#FE7301" d="M110.6 115.1h-2.4v-1.3c-.3-1.2-.6-1.9-.8-2.2-.3-.4-.6-.7-.9-.8-.4-.2-.9-.2-1.5-.2h-.2c-.9 0-1.9.1-3.1.3-1.8.3-3.3.4-4.5.6-1.1.1-2.2.3-3.1.4-1 .1-2 .3-3.1.4-1.2.2-2.6.3-4.3.5-2.5.3-4.6.1-6.3-.6-1.7-.7-3-1.8-4-3.2-.9-1.4-1.5-2.9-1.7-4.7-.1-.5-.1-1.1-.1-1.7-1.1.1-2.1 0-3.2-.1-1.7-.2-3.3-.8-4.6-1.7-1.4-.9-2.5-2.3-3.2-4-.7-1.7-.9-3.8-.6-6.4.2-1.8.4-3.2.5-4.3.2-1.1.3-2.1.4-3.1.1-.9.3-2 .4-3.1.1-1.1.3-2.6.6-4.6.1-1.2.2-2.3.3-3.1 0-.7-.1-1.3-.2-1.7-.1-.3-.4-.6-.8-.9-.3-.2-1-.5-2.2-.8h-1.2l-.1-1.4v-2.4h1.3c1.2-.3 1.9-.6 2.2-.8.4-.3.7-.6.8-.9.2-.4.3-1 .2-1.7 0-.9-.1-1.9-.3-3.1-.3-1.8-.5-3.3-.6-4.5-.1-1.1-.3-2.2-.4-3.1-.1-1-.3-2-.4-3.1-.2-1.1-.3-2.6-.5-4.3-.3-2.5-.1-4.6.6-6.3.7-1.7 1.8-3 3.2-4 1.4-.9 2.9-1.5 4.7-1.7 1-.1 2-.2 3.1-.1l.1-1.8c.2-1.7.8-3.3 1.7-4.6.9-1.4 2.3-2.5 4-3.2 1.7-.7 3.8-.9 6.3-.6 1.8.2 3.2.4 4.3.5 1.1.2 2.1.3 3.1.4.9.1 2 .3 3.1.4 1.1.1 2.6.3 4.6.6 1.2.1 2.3.2 3.1.3h.2c.6 0 1.1-.1 1.5-.2.3-.1.6-.4.9-.8.2-.3.5-1 .8-2.2v-1.2l1.4-.1h2.4v1.3c.3 1.2.6 1.9.8 2.2.3.4.6.7.9.8.4.2.9.2 1.5.2h.2c.8 0 1.9-.1 3.1-.3 1.8-.3 3.3-.4 4.5-.6 1.1-.1 2.2-.3 3.1-.4 1-.1 2-.3 3.1-.4 1.2-.2 2.6-.3 4.3-.5 2.5-.3 4.6-.1 6.3.6 1.7.7 3 1.8 4 3.2.9 1.4 1.5 2.9 1.7 4.7.1.6.1 1.2.1 1.8 1-.1 2.1 0 3.2.1 1.7.2 3.3.8 4.6 1.7 1.4.9 2.5 2.3 3.2 4 .7 1.7.9 3.8.6 6.4-.2 1.8-.4 3.2-.5 4.3-.2 1.1-.3 2.1-.4 3.1-.1.9-.3 2-.4 3.1-.1 1.1-.3 2.7-.6 4.6-.1 1.2-.2 2.3-.3 3.1 0 .7.1 1.3.2 1.7.1.3.4.6.8.9.3.2 1 .5 2.2.8h1.2l.1 1.4v2.3h-1.3c-1.2.3-1.9.6-2.2.8-.4.3-.7.6-.8.9-.2.4-.3 1-.2 1.7 0 .9.1 1.9.3 3.1.3 1.9.5 3.3.6 4.5.1 1.1.3 2.2.4 3.1.1 1 .3 2 .4 3.1.2 1.1.3 2.6.5 4.3.3 2.5.1 4.6-.6 6.3-.7 1.7-1.8 3-3.2 4-1.4.9-2.9 1.5-4.7 1.7-1 .1-2 .2-3.1.1l-.1 1.7c-.2 1.7-.8 3.3-1.7 4.6-.9 1.4-2.3 2.5-4 3.2-1.7.7-3.8.9-6.3.6-1.8-.2-3.2-.4-4.3-.5-1.1-.2-2.1-.3-3.1-.4-.9-.1-2-.3-3.1-.4-1.1-.1-2.7-.3-4.6-.6-1.2-.1-2.3-.2-3.1-.3h-.2c-.6 0-1.1.1-1.5.2-.3.1-.6.4-.9.8-.2.3-.5 1-.8 2.2v1.2l-1.4.2zm-5.7-7.3c1 0 1.8.2 2.5.5.9.4 1.6 1 2.2 1.9.1.2.3.4.4.7l.3-.7c.5-.9 1.3-1.5 2.1-1.9.7-.3 1.6-.5 2.5-.5h.3c.9 0 2.1.1 3.4.3 1.9.3 3.4.4 4.5.6 1.1.1 2.2.3 3.1.4 1 .1 2 .3 3.1.4 1.1.2 2.5.3 4.3.5 2.1.3 3.7.2 5-.4 1.2-.5 2.1-1.2 2.8-2.2.7-1 1.1-2.2 1.3-3.5.1-.9.1-1.8.1-2.7l-.1-1.6 1.6.2c1.3.2 2.6.2 4 0 1.3-.2 2.5-.6 3.5-1.2s1.7-1.6 2.2-2.8c.5-1.2.6-2.9.4-4.9-.2-1.7-.4-3.2-.5-4.3-.2-1.1-.3-2.1-.4-3.1-.1-1-.3-2-.4-3.2-.1-1.1-.3-2.6-.6-4.4-.2-1.3-.3-2.5-.3-3.4 0-1.1.1-2 .4-2.8.4-.9 1-1.6 1.9-2.2.2-.1.4-.3.7-.4l-.7-.3c-.9-.5-1.5-1.3-1.9-2.1-.3-.8-.5-1.7-.4-2.8 0-.9.1-2.1.3-3.4.3-1.9.4-3.4.6-4.5.1-1.1.3-2.2.4-3.1.1-.9.3-2 .4-3.1.2-1.1.3-2.5.5-4.3.3-2.1.2-3.7-.4-5-.5-1.2-1.2-2.1-2.2-2.8-1-.7-2.2-1.1-3.5-1.3-1.3-.2-2.7-.2-4 0l-1.7.3.1-1.7c.1-1 0-1.9-.1-2.9-.2-1.3-.6-2.5-1.2-3.5s-1.6-1.7-2.8-2.2c-1.2-.5-2.9-.6-4.9-.4-1.7.2-3.1.4-4.3.5-1.1.2-2.1.3-3.1.4-1 .1-2 .3-3.2.4-1.1.1-2.6.3-4.4.6-1.4.2-2.5.3-3.4.3h-.3c-1 0-1.8-.2-2.5-.5-.9-.4-1.6-1-2.2-1.9-.1-.2-.3-.4-.4-.7l-.3.7c-.5.9-1.3 1.5-2.1 1.9-.7.3-1.6.5-2.5.5h-.3c-.9 0-2.1-.1-3.4-.3-1.9-.3-3.4-.4-4.5-.6-1.1-.1-2.2-.3-3.1-.4-.9-.1-2-.3-3.1-.4-1.1-.2-2.5-.3-4.3-.5-2.1-.3-3.7-.2-5 .4-1.2.5-2.1 1.2-2.8 2.2-.7 1-1.1 2.2-1.3 3.5-.1.9-.1 1.8-.1 2.8l.1 1.6-1.6-.2c-1.3-.2-2.7-.2-4 0-1.3.2-2.5.6-3.5 1.2s-1.7 1.6-2.2 2.8c-.5 1.2-.6 2.9-.4 4.9.2 1.7.4 3.2.5 4.3.2 1.1.3 2.1.4 3.1.1 1 .3 2 .4 3.2.1 1.1.3 2.6.6 4.4.2 1.3.3 2.5.3 3.4 0 1.1-.1 2-.5 2.8-.4.9-1 1.6-1.9 2.2-.2.1-.4.3-.7.4l.7.3c.9.5 1.5 1.3 1.9 2.1.3.8.5 1.7.5 2.8 0 1-.1 2.1-.3 3.4-.3 1.9-.4 3.4-.6 4.5-.1 1.1-.3 2.2-.4 3.1-.1 1-.3 2-.4 3.1-.2 1.1-.3 2.5-.5 4.3-.3 2.1-.2 3.7.4 5 .5 1.2 1.2 2.1 2.2 2.8 1 .7 2.2 1.1 3.5 1.3 1.3.2 2.7.2 4 0l1.7-.3-.1 1.7c0 1 0 1.9.1 2.8.2 1.3.6 2.5 1.2 3.5s1.6 1.7 2.8 2.2c1.2.5 2.9.6 4.9.4 1.7-.2 3.1-.4 4.3-.5 1.1-.2 2.1-.3 3.1-.4 1-.1 2-.3 3.2-.4 1.1-.1 2.6-.3 4.4-.6 1.3-.2 2.5-.3 3.4-.3h.3zM128.1 23.2c0 10-8.1 18.1-18.1 18.1-10 0-18.1-8.1-18.1-18.1 0-10 8.1-18.1 18.1-18.1 10 0 18.1 8.1 18.1 18.1"/><path fill="#fff" d="M125.7 23.2c0 8.7-7 15.7-15.7 15.7s-15.7-7-15.7-15.7 7-15.7 15.7-15.7 15.7 7.1 15.7 15.7"/><path fill="#0B6300" d="M93.9 23.2c0-8.9 7.2-16.1 16.1-16.1 8.9 0 16.1 7.2 16.1 16.1 0 8.9-7.2 16.1-16.1 16.1-8.9.1-16.1-7.2-16.1-16.1m.8 0c0 8.4 6.8 15.3 15.3 15.3 8.4 0 15.3-6.8 15.3-15.3 0-8.4-6.8-15.3-15.3-15.3-8.4.1-15.3 6.9-15.3 15.3"/><path fill="#fff" d="M147.1 72.2l.1.3c0 .1 0 .2.1.3v.4c0 .4-.1.8-.2 1.3-.2.4-.4.8-.7 1.2l-.4.6c-.1.2-.3.4-.5.5-.3.3-.7.6-1 1-.2.1-.4.3-.5.4l-.6.4-1.2.8c-.4.3-.8.5-1.2.7l-1.2.7c-.4.2-.8.4-1.2.7-.8.4-1.6.9-2.5 1.3-.8.4-1.6.8-2.5 1.2l-2.5 1.2-2.5 1.2-2.5 1.2c-.8.4-1.6.8-2.5 1.2l-.6.3-.6.3-.6.3-.3.1-.3.2-1.2.6-1.2.6c-1.6.8-3.2 1.7-4.9 2.5l-4.8 2.5-1.2.6-1.2.6-.5.3c-.9-.7-2-1.2-3.3-1.7-1.3-.4-2.8-.8-4.4-1-1.6-.2-3.4-.3-5.3-.2-1.9.1-3.9.2-5.9.6.6-.2 1.2-.3 1.7-.5.6-.2 1.2-.3 1.7-.5l.7-.2c.2-.1.4-.1.7-.2.2-.1.4-.1.7-.2.2-.1.4-.1.7-.2l1.3-.4 1.3-.4.7-.2.7-.2 1.3-.4 1.3-.4.7-.2.7-.2 1.3-.4 1.3-.4 1.3-.4 1.3-.4c1.8-.5 3.5-1 5.3-1.6l5.2-1.6 2.6-.8 2.6-.8c.9-.3 1.8-.5 2.6-.8l2.6-.8c.9-.3 1.7-.6 2.6-.8.9-.3 1.7-.6 2.6-.8l1.3-.4c.4-.1.8-.3 1.3-.5.4-.2.8-.3 1.3-.5l1.2-.5c.4-.2.8-.4 1.2-.5.4-.2.8-.4 1.2-.5l1.2-.6c.4-.2.8-.4 1.1-.6.4-.2.7-.4 1.1-.7.4-.3.7-.5 1-.8l.8-.8c.3-.3.5-.6.6-.9.1-.1.1-.3.2-.5v-.9999999999999999c0-.2 0-.4-.1-.5l-.2-.5-.3-.4-.2-.2c-.1-.1-.1-.1-.2-.1s-.2-.1-.2-.1c-.1 0-.2-.1-.2-.1-.4-.1-.7-.1-1.1 0-.1 0-.2 0-.3.1l-.3.1c-.2.1-.4.2-.5.3-.4.2-.6.5-.8.8-.1.2-.2.4-.3.5v.5c0 .2-.1.2-.3.2-.1 0-.1 0-.2-.1 0 0-.1-.1 0-.2v-.7000000000000001l.3-.6c.1-.2.3-.4.4-.5l.5-.5c.4-.3.9-.5 1.3-.6.1 0 .2-.1.4-.1h.4c.2 0 .5 0 .7.1l.7.2c.2.1.4.2.5.4.1.1.2.1.2.2l.2.3.1.3c.2.4.2.5.3.6"/><g fill="#fff"><path d="M91.8 67c.5.5 1.1.6 1.8.4.7-.2 1.3-.5 1.9-1 .2-.2.4-.3.5-.3.2-.1.3 0 .4.2.1.2 0 .5-.2.8-.2.3-.5.7-.8 1l-1.2.9c-.5.3-.9.5-1.4.6-.8.2-1.6.2-2.3 0-.7-.2-1.3-.6-1.8-1.2s-.9-1.3-1-2c-.2-.8-.3-1.5-.3-2.2 0-.7.1-1.4.3-2 .2-.6.4-1.2.8-1.8.3-.6.7-1.1 1.1-1.5.9-.9 1.8-1.5 2.7-1.7.9-.2 1.7-.1 2.4.3s1.1 1 1.3 1.8c.2.8.2 1.6 0 2.4-.1.4-.3.7-.5.9-.5.2-.8.4-1.1.4-.2.1-.4.1-.6 0-.4-.1-.6-.3-.7-.6v-1c.1-.6.1-1.1.1-1.7v-1.2c-.1-.2-.1-.3-.3-.4h-.6c-.2.1-.5.2-.7.6-.2.3-.4.7-.6 1.2-.2.5-.3 1-.4 1.6-.1.6-.1 1.2-.1 1.8 0 .6.1 1.2.2 1.7s.3.9.4 1.2c.3.3.5.6.7.8zM99 67.2c-.8-.4-1.3-1.1-1.6-2.3-.1-.6-.2-1.2-.2-1.7 0-.6.2-1.1.4-1.5.2-.4.5-.9.8-1.2.7-.7 1.5-1.2 2.5-1.5 2-.5 3.3.1 4 1.9.3.1.5 0 .8 0 .3-.1.5-.1.6-.2.2-.1.3-.2.4-.4.1-.1.2-.2.3-.2.1 0 .2 0 .3.2 0 .2 0 .4-.2.6-.3.5-.8.8-1.4.9-.2.1-.4.1-.6.1.2 1.3 0 2.4-.6 3.4-.3.5-.7.9-1.2 1.3s-1 .6-1.6.8c-.6.1-1.1.2-1.6.2-.3-.1-.7-.2-1.1-.4zm1.4-2.3c.2.9.6 1.3 1 1.2.3-.1.5-.4.7-.9.1-.5.2-1.1.2-1.8s-.1-1.4-.3-2.1c-.2-.7-.4-1-.8-.9-.3.1-.6.4-.7.8-.2.5-.3 1.1-.3 1.7 0 .6 0 1.3.2 2zM106.9 57.8l2.5-.7c.1 0 .2 0 .2.1.1.1.1.1.1.2v1.2999999999999998c.2-.5.4-1 .7-1.4.3-.4.6-.7.9-.8.7-.2 1 0 1.1.3.1.4.1.9.1 1.5s-.1 1-.2 1.2c-.1.1-.1.2-.2.2s-.2 0-.3-.1c-.5-.3-1-.4-1.5-.3-.2 0-.4.1-.5.2 0 .7.1 1.7.1 3v2.2c0 .2-.1.4-.2.4-.5.1-1 .3-1.6.5-.6.2-.9.3-1 .4h-.2c-.1-.1-.1-.1-.1-.2v-5.1c0-.8-.1-1.5-.3-2l-.1-.3c0-.4.2-.6.5-.6zM122.3 59.7c.1 0 .2 0 .2.2s0 .3-.1.5-.3.4-.5.6c-.2.2-.5.5-.9.8-.9.7-1.9 1.2-3.2 1.6-2.3.6-3.8-.1-4.3-2.2-.2-1-.2-1.9 0-2.8.3-.9.7-1.6 1.4-2.2.6-.6 1.4-1 2.3-1.2.9-.2 1.6-.2 2.1.1.5.3.8.8 1 1.4.2.7.1 1.3-.2 1.8-.3.5-.7 1-1.3 1.4-.6.4-1.3.7-2.1 1 .2.7.7 1.1 1.5 1.1.2 0 .4 0 .6-.1.8-.2 1.9-.8 3.3-1.9.1-.1.2-.1.2-.1zm-5.7.2c.5-.4.9-.9 1.2-1.4.2-.6.3-1.2.1-1.9 0-.2-.1-.3-.2-.4-.1-.1-.2-.1-.4-.1s-.3.2-.5.4c-.1.2-.2.6-.3.9-.1.8-.1 1.6.1 2.5z"/></g><g fill="#fff"><path d="M82.8 76.7c0 .8.1 3 .4 6.6.1 0 .3-.1.6-.1.8-.2 1.3-.9 1.6-2.1.3-1.2.2-2.6-.3-4.3-.6-2.5-1.7-3.5-3.2-3.1-.6.2-1.1.4-1.7.7-.5.3-.9.6-1.2.9-.3.3-.5.5-.7.8-.2.2-.4.4-.5.4-.2.1-.3-.1-.4-.3-.1-.3 0-.6.2-1s.4-.7.7-1.1c.3-.4.6-.8 1.1-1.2 1-1 2.1-1.7 3.5-2 1.8-.5 3.2 0 4.2 1.4.6.8 1 1.7 1.3 2.9.6 2.3.6 4.2 0 5.9-.5 1.5-1.3 2.5-2.5 3.2-.4.2-.8.4-1.3.5-.5.1-.9.2-1.3.1.1 1.1.2 1.9.2 2.5 0 .6.1 1 0 1.4 0 .4-.1.7-.2.9-.1.2-.2.4-.4.6-.3.2-.7.4-1.2.6-.5.1-1 .1-1.6 0-.5-.1-1-.3-1.3-.5-.4-.3-.6-.5-.7-.8v-.5c0-.1.1-.2.2-.2.4-.1.6-.3.7-.5.1-.3.2-.7.2-1.4s0-1.4-.1-2.3c0-.9-.1-1.7-.1-2.4s-.1-1.5-.1-2.3c0-1.7.2-2.9.6-3.5.2-.3.5-.6.9-.8.4-.2.7-.4.9-.5.2-.1.4-.1.5-.1h.2c.2 0 .3.2.3.4l.1.5c.4-.1.4.2.4.7zM96 73.7l2.8-.5c.1 0 .2 0 .3.1.1.1.1.2.2.4.1.6.3 1.5.3 2.8.1 1.3.2 2.6.2 3.8.1 1.3.2 2.1.3 2.5.1.4.2.6.3.7.1.1.2.1.4.1s.4-.3.8-.7c.4-.4.6-.8.7-1 .1-.2.2-.3.3-.4.2 0 .3.1.3.3.1.6-.2 1.5-1.2 2.7-.3.4-.7.8-1.2 1.2-.5.4-1 .6-1.6.8-1 .2-1.7-.2-2.2-1.4-.3 1.4-1 2.2-2 2.4-.7.2-1.4 0-2.1-.5-.7-.6-1.3-1.7-1.7-3.3-.4-1.7-.6-3.3-.4-4.8.1-1.7.6-2.9 1.4-3.8.4-.5.9-.8 1.5-.9.9-.2 1.7 0 2.4.8 0 0 0-.1-.1-.2l-.1-.5c-.1-.2 0-.5.4-.6zm-.5 10.6c.7-.2 1.1-1.5 1-3.8 0-1.1-.1-1.9-.3-2.6s-.3-1.1-.5-1.3c-.2-.2-.4-.3-.7-.2-.3.1-.6.5-.8 1.1-.2.7-.3 1.5-.3 2.4 0 .9.1 1.7.3 2.4.2.7.4 1.2.6 1.5.2.5.4.6.7.5zM101.8 72.6l2.7-.8c.1 0 .2 0 .3.1l.2.3c0 .1.1.3.1.5s.1.5.1.9c0 .3.1.6.1.7.1-.8.3-1.5.7-2.2.3-.7.6-1 1-1.1.7-.2 1.2 0 1.4.7.2.6.3 1.4.3 2.3 0 .9 0 1.6-.1 1.9-.1.1-.1.2-.3.3-.1 0-.3 0-.4-.1-.7-.6-1.3-.8-1.8-.6-.2.1-.4.1-.5.2.1 1.1.3 2.7.4 4.7.2 2.1.3 3.3.3 3.5 0 .4 0 .6-.2.6-.6.1-1.2.4-1.8.7l-1.1.5c-.1 0-.2 0-.3-.1l-.2-.3c0-.1-.1-.7-.2-1.6-.1-.9-.1-1.9-.2-3s-.2-2.3-.3-3.5c-.1-1.3-.3-2.3-.5-3.1l-.1-.4c-.1-.7 0-1 .4-1.1zM113.5 69.7l1.4-.8c.3-.1.5.1.6.6.1.4.1.8-.2.9-.2.2-.8.5-1.7.9 0 .7.1 1.7.1 3 .1 2.6.2 4.2.3 4.7.1.5.4.8.7.7 1.1-.3 2-.9 2.7-1.9.1-.1.2-.2.3-.2.1 0 .2.1.3.3.1.3 0 .5-.1.8-.4.9-1.1 1.7-2.1 2.5s-2 1.3-3 1.6c-.6.1-1 .1-1.4-.2-.4-.3-.7-.7-.8-1.3-.2-.6-.2-1.8-.3-3.6 0-2-.1-3.7-.3-5.2-.2.1-.4.1-.5.2-.2.1-.4-.1-.5-.5-.1-.3-.1-.5 0-.6l.2-.3c.1-.1.1-.1.2-.1l.2-.1c.1 0 .2-.1.2-.1-.1-.6-.2-1.2-.4-1.7l-.1-.4c-.1-.3.1-.6.5-.9l1.3-.9c.7-.6 1.1-.8 1.3-.9.3-.1.5.1.6.5.3.9.4 1.8.5 3zM129 74.8c.1 0 .3.1.3.3.1.3.1.5 0 .8-.1.2-.2.5-.5.9-.2.3-.5.7-.8 1.1-.3.4-.7.8-1.2 1.2-.5.4-1 .6-1.5.7-1.2.3-1.9-.1-2.1-1.1-.2-.7-.3-1.9-.3-3.8-.1-1.8-.2-3.1-.3-3.7-.2-.7-.5-1-1.1-.8-.2.1-.5.2-.8.4.1 1.1.3 2.8.5 5.1.2 2.4.3 3.7.3 4 0 .3 0 .5-.2.5l-3 .9s-.1 0-.2-.1l-.2-.3c0-.1-.1-.7-.1-1.6-.1-.9-.1-1.9-.2-2.9-.1-1.1-.2-2.2-.3-3.4-.1-1.2-.3-2.3-.5-3l-.1-.4c-.1-.4 0-.6.4-.7l2.7-.8c.1 0 .2 0 .3.1.1.1.1.2.2.4 0 .2.1.5.2.9 1.1-1.5 2.1-2.3 3-2.6.4-.1.8 0 1.2.3.5.4.8 1 1.1 1.9.2.9.4 2.2.4 3.9 0 1.6.1 2.6.2 3 .2.7.4 1 .7 1 .2 0 .5-.3.8-.7.4-.4.6-.7.8-.9.1-.5.2-.6.3-.6zM138.1 72.4c.1 0 .2.1.3.3.1.3 0 .5-.1.8-.1.3-.3.5-.5.9-.2.3-.5.7-.9 1.2-.9 1-2.1 1.8-3.5 2.1-2.6.7-4.4-.6-5.2-3.8-.4-1.6-.5-3-.3-4.4.2-1.3.6-2.4 1.3-3.3.7-.9 1.5-1.4 2.5-1.7 1-.3 1.8-.1 2.4.3.6.5 1.1 1.3 1.3 2.3.3 1.1.3 2 0 2.9-.3.8-.7 1.5-1.4 2s-1.4 1-2.4 1.4c.4 1.2 1 1.8 1.9 1.9.2 0 .5 0 .7-.1.9-.2 2.1-1.1 3.5-2.7.3 0 .4-.1.4-.1zm-6.6-.3c.6-.5 1-1.3 1.2-2.1.2-.9.2-1.8-.1-2.9-.1-.3-.2-.5-.3-.6-.1-.1-.3-.2-.5-.1-.2 0-.3.3-.5.6-.1.4-.2.8-.2 1.4 0 1.1.1 2.4.4 3.7zM137.4 63.4l2.7-.8c.1 0 .2 0 .3.1l.2.3c0 .1.1.3.1.5s.1.5.1.9c0 .3.1.6.1.7.1-.8.3-1.5.7-2.2s.6-1 1-1.1c.7-.2 1.2 0 1.4.7.2.6.3 1.4.3 2.3 0 .9 0 1.6-.1 1.9-.1.1-.1.2-.3.3-.1 0-.3 0-.4-.1-.7-.6-1.3-.8-1.8-.6-.2.1-.4.1-.5.2.1 1.1.3 2.7.4 4.7.2 2.1.3 3.3.3 3.5 0 .4 0 .6-.2.6-.6.1-1.2.4-1.8.7l-1.1.5c-.1 0-.2 0-.3-.1l-.2-.3c0-.1-.1-.7-.2-1.6-.1-.9-.1-1.9-.2-3s-.2-2.3-.3-3.5c-.1-1.3-.3-2.3-.5-3.1l-.1-.4c-.2-.7 0-1 .4-1.1z"/></g><g fill="#0B6300"><path d="M99 16.8c0-.2 0-.4-.1-.6l-.4-.6-.1-.2s0-.1.1-.1h1.9l.1.1s-.1.1-.1.2l-.4.6c-.1.1-.1.3-.1.6v13h.5c.1 0 .3-.1.3-.3l.8-4c0-.1 0-.1.1-.1l.1.1v5.1c0 .2 0 .3-.1.3h-3l-.1-.1.1-.2.4-.6c.1-.1.1-.3.1-.6v-12.6zM105.3 27.3c0-.1 0-.2-.1-.2h-.9l-.1.1-.2 2.3c0 .1 0 .3.1.4l.3.5c0 .1.1.2.1.2 0 .1 0 .1-.1.1h-1.4l-.1-.1c0-.1 0-.1.1-.2l.3-.6c.1-.1.1-.3.1-.5l1.1-13.9c0-.1 0-.2.1-.2h.5c.1 0 .1.1.1.2l1.2 13.8c0 .2 0 .4.1.6l.4.5.1.2c0 .1 0 .1-.1.1h-1.8c-.1 0-.1-.1-.1-.1 0-.1 0-.1.1-.2l.3-.6c0-.1.1-.2.1-.4l-.2-2zm-.2-1.3s.1-.1 0-.1l-.4-5.1-.4 5.1v.1h.8zM109.5 29.3c0 .2 0 .4.1.6l.4.6.1.2c0 .1 0 .1-.1.1h-1.9l-.1-.1.1-.2.4-.6c.1-.1.1-.3.1-.6v-12.5c0-.2 0-.4-.1-.6l-.4-.6-.1-.2s0-.1.1-.1h1.5c1.3 0 1.9 1.1 1.9 3.8 0 2.3-.5 3.2-.9 3.7.4.4.8 1.2.8 2.3v4.3c0 .1 0 .3.1.4l.4.7c0 .1.1.2.1.2 0 .1-.1.1-.1.1h-.6c-.6 0-.8-.6-.8-1.3v-4.5c0-.9-.3-1.6-.8-1.6h-.2v5.9zm0-6.9h.2c.6 0 .8-.8.8-3.3 0-2.1-.2-2.8-.8-2.8h-.2v6.1zM115.5 24.2c0-.2 0-.3-.1-.5l-.3-.5-.1-.2c0-.1 0-.1.1-.1h1.8s.1 0 .1.1 0 .1-.1.2l-.4.5c-.1.1-.1.2-.1.5v6.5c0 .1 0 .1-.1.1 0 0-.1 0-.1-.1l-.4-.6c0-.1-.1-.1-.1-.1s-.1 0-.1.1c-.3.4-.5.6-.8.6-1.5 0-1.6-4.7-1.6-8.1 0-2.5.1-7.3 1.6-7.3.4 0 .7.3.8.5 0 .1.1.1.2.1s.2-.1.3-.3c.1-.2.2-.3.2-.3s.1.1.1.4v5c0 .1 0 .1-.1.1 0 0-.1-.1-.1-.2-.3-1.5-.8-4.2-1.3-4.2s-.7 2-.7 6.3c0 5.9.1 7.1.6 7.1.4 0 .7-.8.7-2.7v-2.9zM119.5 22.3h.3c.1 0 .1 0 .1-.1l.4-1.4c0-.1 0-.1.1-.1v4.6l-.1-.1-.4-1.5c0-.1-.1-.1-.1-.1h-.3v6.3h.7c.2 0 .3-.1.3-.4l.7-4c0-.1 0-.1.1-.1l.1.1v5.2c0 .1 0 .2-.1.2h-3.2l-.1-.1.1-.2.4-.6c.1-.1.1-.3.1-.6v-12.6c0-.2 0-.4-.1-.6l-.4-.6-.1-.2s0-.1.1-.1h3.2s.1.1.1.2v5.1c0 .1 0 .1-.1.1l-.1-.1-.7-3.9c0-.3-.2-.4-.3-.4h-.7v6z"/></g><path fill="#fff" d="M158 66.6c-1.2-.3-2.2-.6-2.8-1-.6-.4-1.1-.9-1.3-1.5-.3-.6-.4-1.4-.3-2.3 0-.9.1-2 .3-3.3.3-1.9.5-3.4.6-4.5.1-1.1.3-2.2.4-3.1.1-.9.3-2 .4-3.1.2-1.1.3-2.5.5-4.3.3-2.3.2-4.2-.5-5.6-.6-1.5-1.5-2.6-2.7-3.4-1.2-.8-2.5-1.3-4.1-1.5-1.5-.2-2.9-.2-4.4.1.1-1 0-2.1-.1-3.1-.2-1.5-.7-2.9-1.5-4.1-.8-1.2-1.9-2.1-3.4-2.7-1.5-.6-3.3-.8-5.6-.5-1.8.2-3.2.4-4.3.5-1.1.2-2.1.3-3.1.4-1 .1-2 .3-3.1.4-1.1.1-2.6.3-4.5.6-1.3.2-2.4.2-3.3.3-.9 0-1.6-.1-2.3-.3-.6-.3-1.1-.7-1.5-1.3-.4-.6-.7-1.6-1-2.8v-.1h-1.1v.1c-.3 1.2-.6 2.2-1 2.8-.4.6-.9 1.1-1.5 1.3-.6.3-1.4.4-2.3.3-.9 0-2-.1-3.3-.3-1.9-.3-3.4-.4-4.5-.6-1.1-.1-2.2-.3-3.1-.4-.9-.1-2-.3-3.1-.4-1.1-.2-2.5-.3-4.3-.5-2.3-.3-4.2-.2-5.6.5-1.5.6-2.6 1.5-3.4 2.7-.8 1.2-1.3 2.5-1.5 4.1-.1 1-.2 2.1-.1 3.1-1.4-.2-2.9-.2-4.3 0-1.5.2-2.9.7-4.1 1.5-1.2.8-2.1 1.9-2.7 3.4-.6 1.5-.8 3.3-.5 5.6.2 1.8.4 3.2.5 4.3.2 1.1.3 2.1.4 3.1.1 1 .3 2 .4 3.1.1 1.1.3 2.6.6 4.5.2 1.3.2 2.4.3 3.3 0 .9-.1 1.6-.3 2.3-.3.6-.7 1.1-1.3 1.5-.6.4-1.6.7-2.8 1h-.1v1.1h.3c1.2.3 2.2.6 2.8 1 .6.4 1.1.9 1.3 1.5.3.6.4 1.4.3 2.3 0 .9-.1 2-.3 3.3-.3 1.9-.4 3.4-.6 4.5-.1 1.1-.3 2.2-.4 3.1-.1.9-.3 2-.4 3.1-.2 1.1-.3 2.5-.5 4.3-.3 2.3-.2 4.2.5 5.6.6 1.5 1.5 2.6 2.7 3.4 1.2.8 2.5 1.3 4.1 1.5 1.5.2 2.9.2 4.4-.1-.1 1 0 2 .1 3 .2 1.5.7 2.9 1.5 4.1.8 1.2 1.9 2.1 3.4 2.7 1.5.6 3.3.8 5.6.5 1.8-.2 3.2-.4 4.3-.5 1.1-.2 2.1-.3 3.1-.4 1-.1 2-.3 3.1-.4 1.1-.1 2.6-.3 4.5-.6 1.3-.2 2.4-.2 3.3-.3.9 0 1.6.1 2.3.3.6.3 1.1.7 1.5 1.3.4.6.7 1.6 1 2.8v.1h1.1v-.1c.3-1.2.6-2.2 1-2.8.4-.6.9-1.1 1.5-1.3.6-.3 1.4-.4 2.3-.3.9 0 2 .1 3.3.3 1.9.3 3.4.4 4.5.6 1.1.1 2.2.3 3.1.4.9.1 2 .3 3.1.4 1.1.2 2.5.3 4.3.5 2.3.3 4.2.2 5.6-.5 1.5-.6 2.6-1.5 3.4-2.7.8-1.2 1.3-2.5 1.5-4.1.1-1 .2-2 .1-3 1.4.2 2.8.2 4.3 0s2.9-.7 4.1-1.5c1.2-.8 2.1-1.9 2.7-3.4.6-1.5.8-3.3.5-5.6-.2-1.8-.4-3.2-.5-4.3-.2-1.1-.3-2.1-.4-3.1-.1-1-.3-2-.4-3.1-.1-1.1-.3-2.6-.6-4.5-.2-1.3-.2-2.4-.3-3.3 0-.9.1-1.6.3-2.3.3-.6.7-1.1 1.3-1.5.6-.4 1.6-.7 2.8-1h.1l-.3-1.1z"/><defs><path id="c" d="M109.5 20.4c-.3 1.3-.6 2.2-1 2.9-.4.6-.9 1.1-1.5 1.3-.6.3-1.4.4-2.3.3-.9 0-2-.1-3.3-.3-1.9-.3-3.4-.4-4.5-.6-1.1-.1-2.2-.3-3.1-.4-.9-.1-2-.3-3.1-.4-1.1-.2-2.5-.3-4.3-.5-2.3-.3-4.2-.2-5.6.5-1.5.6-2.6 1.5-3.4 2.7-.8 1.2-1.3 2.5-1.5 4.1-.1 1-.2 2.1-.1 3.1-1.4-.2-2.9-.2-4.3 0-1.5.2-2.9.7-4.1 1.5-1.2.8-2.1 1.9-2.7 3.4-.6 1.5-.8 3.3-.5 5.6.2 1.8.4 3.2.5 4.3.2 1.1.3 2.1.4 3.1.1 1 .3 2 .4 3.1.1 1.1.3 2.6.6 4.5.2 1.3.2 2.4.3 3.3 0 .9-.1 1.6-.3 2.3-.3.6-.7 1.1-1.3 1.5-.6.4-1.6.7-2.8 1h-.1v1.1h.1c1.2.3 2.2.6 2.8 1 .6.4 1.1.9 1.3 1.5.3.6.4 1.4.3 2.3 0 .9-.1 2-.3 3.3-.3 1.9-.4 3.4-.6 4.5-.1 1.1-.3 2.2-.4 3.1-.1.9-.3 2-.4 3.1-.2 1.1-.3 2.5-.5 4.3-.3 2.3-.2 4.2.5 5.6.6 1.5 1.5 2.6 2.7 3.4 1.2.8 2.5 1.3 4.1 1.5 1.5.2 2.9.2 4.4-.1-.1 1 0 2 .1 3 .2 1.5.7 2.9 1.5 4.1.8 1.2 1.9 2.1 3.4 2.7 1.5.6 3.3.8 5.6.5 1.8-.2 3.2-.4 4.3-.5 1.1-.2 2.1-.3 3.1-.4 1-.1 2-.3 3.1-.4 1.1-.1 2.6-.3 4.5-.6 1.3-.2 2.4-.2 3.3-.3.9 0 1.6.1 2.3.3.6.3 1.1.7 1.5 1.3.4.6.7 1.6 1 2.8v.1h1.1v-.1c.3-1.2.6-2.2 1-2.8.4-.6.9-1.1 1.5-1.3.6-.3 1.4-.4 2.3-.3.9 0 2 .1 3.3.3 1.9.3 3.4.4 4.5.6 1.1.1 2.2.3 3.1.4.9.1 2 .3 3.1.4 1.1.2 2.5.3 4.3.5 2.3.3 4.2.2 5.6-.5 1.5-.6 2.6-1.5 3.4-2.7.8-1.2 1.3-2.5 1.5-4.1.1-1 .2-2 .1-3 1.4.2 2.8.2 4.3 0s2.9-.7 4.1-1.5c1.2-.8 2.1-1.9 2.7-3.4.6-1.5.8-3.3.5-5.6-.2-1.8-.4-3.2-.5-4.3-.2-1.1-.3-2.1-.4-3.1-.1-1-.3-2-.4-3.1-.1-1.1-.3-2.6-.6-4.5-.2-1.3-.2-2.4-.3-3.3 0-.9.1-1.6.3-2.3.3-.6.7-1.1 1.3-1.5.6-.4 1.6-.7 2.8-1h.1v-1.1h-.3c-1.2-.3-2.2-.6-2.8-1-.6-.4-1.1-.9-1.3-1.5-.3-.6-.4-1.4-.3-2.3 0-.9.1-2 .3-3.3.3-1.9.5-3.4.6-4.5.1-1.1.3-2.2.4-3.1.1-.9.3-2 .4-3.1.2-1.1.3-2.5.5-4.3.3-2.3.2-4.2-.5-5.6-.6-1.5-1.5-2.6-2.7-3.4-1.2-.8-2.5-1.3-4.1-1.5-1.5-.2-2.9-.2-4.4.1.1-1 0-2.1-.1-3.1-.2-1.5-.7-2.9-1.5-4.1-.8-1.2-1.9-2.1-3.4-2.7-1.5-.6-3.3-.8-5.6-.5-1.8.2-3.2.4-4.3.5-1.1.2-2.1.3-3.1.4-1 .1-2 .3-3.1.4-1.1.1-2.6.3-4.5.6-1.3.2-2.4.2-3.3.3-.9 0-1.6-.1-2.3-.3-.6-.3-1.1-.7-1.5-1.3-.4-.6-.7-1.6-1-2.8v-.1h-.9z"/></defs><clipPath id="d"><use xlink:href="#c" overflow="visible"/></clipPath><path clip-path="url(#d)" fill="#0B6300" d="M50.6 45.6h118v78.8h-118z"/><path clip-path="url(#d)" fill="#630055" d="M50.6 17.2h1v30h-1zM52.8 17.2h1v30h-1zM55 17.2h1v30h-1zM57.2 17.2h1v30h-1zM59.3 17.2h1v30h-1zM61.5 17.2h1v30h-1zM63.7 17.2h1v30h-1z"/><path clip-path="url(#d)" fill="#0B6300" d="M65.9 17.2h1v30h-1zM68.1 17.2h1v30h-1zM70.2 17.2h1v30h-1zM72.4 17.2h1v30h-1zM74.6 17.2h1v30h-1zM76.8 17.2h1v30h-1zM79 17.2h1v30h-1zM81.2 17.2h1v30h-1zM83.3 17.2h1v30h-1zM85.5 17.2h1v30h-1zM87.7 17.2h1v30h-1zM89.9 17.2h1v30h-1zM92.1 17.2h1v30h-1zM94.2 17.2h1v30h-1zM96.4 17.2h1v30h-1zM98.6 17.2h1v30h-1zM100.8 17.2h1v30h-1zM103 17.2h1v30h-1zM105.2 17.2h1v30h-1zM107.3 17.2h1v30h-1zM109.5 17.2h1v30h-1zM111.7 17.2h1v30h-1zM113.9 17.2h1v30h-1zM116.1 17.2h1v30h-1zM118.2 17.2h1v30h-1zM120.4 17.2h1v30h-1zM122.6 17.2h1v30h-1zM124.8 17.2h1v30h-1zM127 17.2h1v30h-1zM129.2 17.2h1v30h-1zM131.3 17.2h1v30h-1zM133.5 17.2h1v30h-1zM135.7 17.2h1v30h-1zM137.9 17.2h1v30h-1zM140.1 17.2h1v30h-1zM142.3 17.2h1v30h-1zM144.4 17.2h1v30h-1zM146.6 17.2h1v30h-1zM148.8 17.2h1v30h-1zM151 17.2h1v30h-1zM153.2 17.2h1v30h-1z"/><path clip-path="url(#d)" fill="#630055" d="M155.3 17.2h1v30h-1zM157.5 17.2h1v30h-1zM159.7 17.2h1v30h-1zM161.9 17.2h1v30h-1zM164.1 17.2h1v30h-1zM166.3 17.2h1v30h-1zM168.4 17.2h1v30h-1z"/><path fill="#FE7301" d="M110.6 115.1h-2.4v-1.3c-.3-1.2-.6-1.9-.8-2.2-.3-.4-.6-.7-.9-.8-.4-.2-.9-.2-1.5-.2h-.2c-.9 0-1.9.1-3.1.3-1.8.3-3.3.4-4.5.6-1.1.1-2.2.3-3.1.4-1 .1-2 .3-3.1.4-1.2.2-2.6.3-4.3.5-2.5.3-4.6.1-6.3-.6-1.7-.7-3-1.8-4-3.2-.9-1.4-1.5-2.9-1.7-4.7-.1-.5-.1-1.1-.1-1.7-1.1.1-2.1 0-3.2-.1-1.7-.2-3.3-.8-4.6-1.7-1.4-.9-2.5-2.3-3.2-4-.7-1.7-.9-3.8-.6-6.4.2-1.8.4-3.2.5-4.3.2-1.1.3-2.1.4-3.1.1-.9.3-2 .4-3.1.1-1.1.3-2.6.6-4.6.1-1.2.2-2.3.3-3.1 0-.7-.1-1.3-.2-1.7-.1-.3-.4-.6-.8-.9-.3-.2-1-.5-2.2-.8h-1.2l-.1-1.4v-2.4h1.3c1.2-.3 1.9-.6 2.2-.8.4-.3.7-.6.8-.9.2-.4.3-1 .2-1.7 0-.9-.1-1.9-.3-3.1-.3-1.8-.5-3.3-.6-4.5-.1-1.1-.3-2.2-.4-3.1-.1-1-.3-2-.4-3.1-.2-1.1-.3-2.6-.5-4.3-.3-2.5-.1-4.6.6-6.3.7-1.7 1.8-3 3.2-4 1.4-.9 2.9-1.5 4.7-1.7 1-.1 2-.2 3.1-.1l.1-1.8c.2-1.7.8-3.3 1.7-4.6.9-1.4 2.3-2.5 4-3.2 1.7-.7 3.8-.9 6.3-.6 1.8.2 3.2.4 4.3.5 1.1.2 2.1.3 3.1.4.9.1 2 .3 3.1.4 1.1.1 2.6.3 4.6.6 1.2.1 2.3.2 3.1.3h.2c.6 0 1.1-.1 1.5-.2.3-.1.6-.4.9-.8.2-.3.5-1 .8-2.2v-1.2l1.4-.1h2.4v1.3c.3 1.2.6 1.9.8 2.2.3.4.6.7.9.8.4.2.9.2 1.5.2h.2c.8 0 1.9-.1 3.1-.3 1.8-.3 3.3-.4 4.5-.6 1.1-.1 2.2-.3 3.1-.4 1-.1 2-.3 3.1-.4 1.2-.2 2.6-.3 4.3-.5 2.5-.3 4.6-.1 6.3.6 1.7.7 3 1.8 4 3.2.9 1.4 1.5 2.9 1.7 4.7.1.6.1 1.2.1 1.8 1-.1 2.1 0 3.2.1 1.7.2 3.3.8 4.6 1.7 1.4.9 2.5 2.3 3.2 4 .7 1.7.9 3.8.6 6.4-.2 1.8-.4 3.2-.5 4.3-.2 1.1-.3 2.1-.4 3.1-.1.9-.3 2-.4 3.1-.1 1.1-.3 2.7-.6 4.6-.1 1.2-.2 2.3-.3 3.1 0 .7.1 1.3.2 1.7.1.3.4.6.8.9.3.2 1 .5 2.2.8h1.2l.1 1.4v2.3h-1.3c-1.2.3-1.9.6-2.2.8-.4.3-.7.6-.8.9-.2.4-.3 1-.2 1.7 0 .9.1 1.9.3 3.1.3 1.9.5 3.3.6 4.5.1 1.1.3 2.2.4 3.1.1 1 .3 2 .4 3.1.2 1.1.3 2.6.5 4.3.3 2.5.1 4.6-.6 6.3-.7 1.7-1.8 3-3.2 4-1.4.9-2.9 1.5-4.7 1.7-1 .1-2 .2-3.1.1l-.1 1.7c-.2 1.7-.8 3.3-1.7 4.6-.9 1.4-2.3 2.5-4 3.2-1.7.7-3.8.9-6.3.6-1.8-.2-3.2-.4-4.3-.5-1.1-.2-2.1-.3-3.1-.4-.9-.1-2-.3-3.1-.4-1.1-.1-2.7-.3-4.6-.6-1.2-.1-2.3-.2-3.1-.3h-.2c-.6 0-1.1.1-1.5.2-.3.1-.6.4-.9.8-.2.3-.5 1-.8 2.2v1.2l-1.4.2zm-5.7-7.3c1 0 1.8.2 2.5.5.9.4 1.6 1 2.2 1.9.1.2.3.4.4.7l.3-.7c.5-.9 1.3-1.5 2.1-1.9.7-.3 1.6-.5 2.5-.5h.3c.9 0 2.1.1 3.4.3 1.9.3 3.4.4 4.5.6 1.1.1 2.2.3 3.1.4 1 .1 2 .3 3.1.4 1.1.2 2.5.3 4.3.5 2.1.3 3.7.2 5-.4 1.2-.5 2.1-1.2 2.8-2.2.7-1 1.1-2.2 1.3-3.5.1-.9.1-1.8.1-2.7l-.1-1.6 1.6.2c1.3.2 2.6.2 4 0 1.3-.2 2.5-.6 3.5-1.2s1.7-1.6 2.2-2.8c.5-1.2.6-2.9.4-4.9-.2-1.7-.4-3.2-.5-4.3-.2-1.1-.3-2.1-.4-3.1-.1-1-.3-2-.4-3.2-.1-1.1-.3-2.6-.6-4.4-.2-1.3-.3-2.5-.3-3.4 0-1.1.1-2 .4-2.8.4-.9 1-1.6 1.9-2.2.2-.1.4-.3.7-.4l-.7-.3c-.9-.5-1.5-1.3-1.9-2.1-.3-.8-.5-1.7-.4-2.8 0-.9.1-2.1.3-3.4.3-1.9.4-3.4.6-4.5.1-1.1.3-2.2.4-3.1.1-.9.3-2 .4-3.1.2-1.1.3-2.5.5-4.3.3-2.1.2-3.7-.4-5-.5-1.2-1.2-2.1-2.2-2.8-1-.7-2.2-1.1-3.5-1.3-1.3-.2-2.7-.2-4 0l-1.7.3.1-1.7c.1-1 0-1.9-.1-2.9-.2-1.3-.6-2.5-1.2-3.5s-1.6-1.7-2.8-2.2c-1.2-.5-2.9-.6-4.9-.4-1.7.2-3.1.4-4.3.5-1.1.2-2.1.3-3.1.4-1 .1-2 .3-3.2.4-1.1.1-2.6.3-4.4.6-1.4.2-2.5.3-3.4.3h-.3c-1 0-1.8-.2-2.5-.5-.9-.4-1.6-1-2.2-1.9-.1-.2-.3-.4-.4-.7l-.3.7c-.5.9-1.3 1.5-2.1 1.9-.7.3-1.6.5-2.5.5h-.3c-.9 0-2.1-.1-3.4-.3-1.9-.3-3.4-.4-4.5-.6-1.1-.1-2.2-.3-3.1-.4-.9-.1-2-.3-3.1-.4-1.1-.2-2.5-.3-4.3-.5-2.1-.3-3.7-.2-5 .4-1.2.5-2.1 1.2-2.8 2.2-.7 1-1.1 2.2-1.3 3.5-.1.9-.1 1.8-.1 2.8l.1 1.6-1.6-.2c-1.3-.2-2.7-.2-4 0-1.3.2-2.5.6-3.5 1.2s-1.7 1.6-2.2 2.8c-.5 1.2-.6 2.9-.4 4.9.2 1.7.4 3.2.5 4.3.2 1.1.3 2.1.4 3.1.1 1 .3 2 .4 3.2.1 1.1.3 2.6.6 4.4.2 1.3.3 2.5.3 3.4 0 1.1-.1 2-.5 2.8-.4.9-1 1.6-1.9 2.2-.2.1-.4.3-.7.4l.7.3c.9.5 1.5 1.3 1.9 2.1.3.8.5 1.7.5 2.8 0 1-.1 2.1-.3 3.4-.3 1.9-.4 3.4-.6 4.5-.1 1.1-.3 2.2-.4 3.1-.1 1-.3 2-.4 3.1-.2 1.1-.3 2.5-.5 4.3-.3 2.1-.2 3.7.4 5 .5 1.2 1.2 2.1 2.2 2.8 1 .7 2.2 1.1 3.5 1.3 1.3.2 2.7.2 4 0l1.7-.3-.1 1.7c0 1 0 1.9.1 2.8.2 1.3.6 2.5 1.2 3.5s1.6 1.7 2.8 2.2c1.2.5 2.9.6 4.9.4 1.7-.2 3.1-.4 4.3-.5 1.1-.2 2.1-.3 3.1-.4 1-.1 2-.3 3.2-.4 1.1-.1 2.6-.3 4.4-.6 1.3-.2 2.5-.3 3.4-.3h.3zM128.1 23.2c0 10-8.1 18.1-18.1 18.1-10 0-18.1-8.1-18.1-18.1 0-10 8.1-18.1 18.1-18.1 10 0 18.1 8.1 18.1 18.1"/><path fill="#fff" d="M125.7 23.2c0 8.7-7 15.7-15.7 15.7s-15.7-7-15.7-15.7 7-15.7 15.7-15.7 15.7 7.1 15.7 15.7"/><path fill="#0B6300" d="M93.9 23.2c0-8.9 7.2-16.1 16.1-16.1 8.9 0 16.1 7.2 16.1 16.1 0 8.9-7.2 16.1-16.1 16.1-8.9.1-16.1-7.2-16.1-16.1m.8 0c0 8.4 6.8 15.3 15.3 15.3 8.4 0 15.3-6.8 15.3-15.3 0-8.4-6.8-15.3-15.3-15.3-8.4.1-15.3 6.9-15.3 15.3"/><path fill="#fff" d="M147.1 72.2l.1.3c0 .1 0 .2.1.3v.4c0 .4-.1.8-.2 1.3-.2.4-.4.8-.7 1.2l-.4.6c-.1.2-.3.4-.5.5-.3.3-.7.6-1 1-.2.1-.4.3-.5.4l-.6.4-1.2.8c-.4.3-.8.5-1.2.7l-1.2.7c-.4.2-.8.4-1.2.7-.8.4-1.6.9-2.5 1.3-.8.4-1.6.8-2.5 1.2l-2.5 1.2-2.5 1.2-2.5 1.2c-.8.4-1.6.8-2.5 1.2l-.6.3-.6.3-.6.3-.3.1-.3.2-1.2.6-1.2.6c-1.6.8-3.2 1.7-4.9 2.5l-4.8 2.5-1.2.6-1.2.6-.5.3c-.9-.7-2-1.2-3.3-1.7-1.3-.4-2.8-.8-4.4-1-1.6-.2-3.4-.3-5.3-.2-1.9.1-3.9.2-5.9.6.6-.2 1.2-.3 1.7-.5.6-.2 1.2-.3 1.7-.5l.7-.2c.2-.1.4-.1.7-.2.2-.1.4-.1.7-.2.2-.1.4-.1.7-.2l1.3-.4 1.3-.4.7-.2.7-.2 1.3-.4 1.3-.4.7-.2.7-.2 1.3-.4 1.3-.4 1.3-.4 1.3-.4c1.8-.5 3.5-1 5.3-1.6l5.2-1.6 2.6-.8 2.6-.8c.9-.3 1.8-.5 2.6-.8l2.6-.8c.9-.3 1.7-.6 2.6-.8.9-.3 1.7-.6 2.6-.8l1.3-.4c.4-.1.8-.3 1.3-.5.4-.2.8-.3 1.3-.5l1.2-.5c.4-.2.8-.4 1.2-.5.4-.2.8-.4 1.2-.5l1.2-.6c.4-.2.8-.4 1.1-.6.4-.2.7-.4 1.1-.7.4-.3.7-.5 1-.8l.8-.8c.3-.3.5-.6.6-.9.1-.1.1-.3.2-.5v-.9999999999999999c0-.2 0-.4-.1-.5l-.2-.5-.3-.4-.2-.2c-.1-.1-.1-.1-.2-.1s-.2-.1-.2-.1c-.1 0-.2-.1-.2-.1-.4-.1-.7-.1-1.1 0-.1 0-.2 0-.3.1l-.3.1c-.2.1-.4.2-.5.3-.4.2-.6.5-.8.8-.1.2-.2.4-.3.5v.5c0 .2-.1.2-.3.2-.1 0-.1 0-.2-.1 0 0-.1-.1 0-.2v-.7000000000000001l.3-.6c.1-.2.3-.4.4-.5l.5-.5c.4-.3.9-.5 1.3-.6.1 0 .2-.1.4-.1h.4c.2 0 .5 0 .7.1l.7.2c.2.1.4.2.5.4.1.1.2.1.2.2l.2.3.1.3c.2.4.2.5.3.6"/><g fill="#fff"><path d="M91.8 67c.5.5 1.1.6 1.8.4.7-.2 1.3-.5 1.9-1 .2-.2.4-.3.5-.3.2-.1.3 0 .4.2.1.2 0 .5-.2.8-.2.3-.5.7-.8 1l-1.2.9c-.5.3-.9.5-1.4.6-.8.2-1.6.2-2.3 0-.7-.2-1.3-.6-1.8-1.2s-.9-1.3-1-2c-.2-.8-.3-1.5-.3-2.2 0-.7.1-1.4.3-2 .2-.6.4-1.2.8-1.8.3-.6.7-1.1 1.1-1.5.9-.9 1.8-1.5 2.7-1.7.9-.2 1.7-.1 2.4.3s1.1 1 1.3 1.8c.2.8.2 1.6 0 2.4-.1.4-.3.7-.5.9-.5.2-.8.4-1.1.4-.2.1-.4.1-.6 0-.4-.1-.6-.3-.7-.6v-1c.1-.6.1-1.1.1-1.7v-1.2c-.1-.2-.1-.3-.3-.4h-.6c-.2.1-.5.2-.7.6-.2.3-.4.7-.6 1.2-.2.5-.3 1-.4 1.6-.1.6-.1 1.2-.1 1.8 0 .6.1 1.2.2 1.7s.3.9.4 1.2c.3.3.5.6.7.8zM99 67.2c-.8-.4-1.3-1.1-1.6-2.3-.1-.6-.2-1.2-.2-1.7 0-.6.2-1.1.4-1.5.2-.4.5-.9.8-1.2.7-.7 1.5-1.2 2.5-1.5 2-.5 3.3.1 4 1.9.3.1.5 0 .8 0 .3-.1.5-.1.6-.2.2-.1.3-.2.4-.4.1-.1.2-.2.3-.2.1 0 .2 0 .3.2 0 .2 0 .4-.2.6-.3.5-.8.8-1.4.9-.2.1-.4.1-.6.1.2 1.3 0 2.4-.6 3.4-.3.5-.7.9-1.2 1.3s-1 .6-1.6.8c-.6.1-1.1.2-1.6.2-.3-.1-.7-.2-1.1-.4zm1.4-2.3c.2.9.6 1.3 1 1.2.3-.1.5-.4.7-.9.1-.5.2-1.1.2-1.8s-.1-1.4-.3-2.1c-.2-.7-.4-1-.8-.9-.3.1-.6.4-.7.8-.2.5-.3 1.1-.3 1.7 0 .6 0 1.3.2 2zM106.9 57.8l2.5-.7c.1 0 .2 0 .2.1.1.1.1.1.1.2v1.2999999999999998c.2-.5.4-1 .7-1.4.3-.4.6-.7.9-.8.7-.2 1 0 1.1.3.1.4.1.9.1 1.5s-.1 1-.2 1.2c-.1.1-.1.2-.2.2s-.2 0-.3-.1c-.5-.3-1-.4-1.5-.3-.2 0-.4.1-.5.2 0 .7.1 1.7.1 3v2.2c0 .2-.1.4-.2.4-.5.1-1 .3-1.6.5-.6.2-.9.3-1 .4h-.2c-.1-.1-.1-.1-.1-.2v-5.1c0-.8-.1-1.5-.3-2l-.1-.3c0-.4.2-.6.5-.6zM122.3 59.7c.1 0 .2 0 .2.2s0 .3-.1.5-.3.4-.5.6c-.2.2-.5.5-.9.8-.9.7-1.9 1.2-3.2 1.6-2.3.6-3.8-.1-4.3-2.2-.2-1-.2-1.9 0-2.8.3-.9.7-1.6 1.4-2.2.6-.6 1.4-1 2.3-1.2.9-.2 1.6-.2 2.1.1.5.3.8.8 1 1.4.2.7.1 1.3-.2 1.8-.3.5-.7 1-1.3 1.4-.6.4-1.3.7-2.1 1 .2.7.7 1.1 1.5 1.1.2 0 .4 0 .6-.1.8-.2 1.9-.8 3.3-1.9.1-.1.2-.1.2-.1zm-5.7.2c.5-.4.9-.9 1.2-1.4.2-.6.3-1.2.1-1.9 0-.2-.1-.3-.2-.4-.1-.1-.2-.1-.4-.1s-.3.2-.5.4c-.1.2-.2.6-.3.9-.1.8-.1 1.6.1 2.5z"/></g><g fill="#fff"><path d="M82.8 76.7c0 .8.1 3 .4 6.6.1 0 .3-.1.6-.1.8-.2 1.3-.9 1.6-2.1.3-1.2.2-2.6-.3-4.3-.6-2.5-1.7-3.5-3.2-3.1-.6.2-1.1.4-1.7.7-.5.3-.9.6-1.2.9-.3.3-.5.5-.7.8-.2.2-.4.4-.5.4-.2.1-.3-.1-.4-.3-.1-.3 0-.6.2-1s.4-.7.7-1.1c.3-.4.6-.8 1.1-1.2 1-1 2.1-1.7 3.5-2 1.8-.5 3.2 0 4.2 1.4.6.8 1 1.7 1.3 2.9.6 2.3.6 4.2 0 5.9-.5 1.5-1.3 2.5-2.5 3.2-.4.2-.8.4-1.3.5-.5.1-.9.2-1.3.1.1 1.1.2 1.9.2 2.5 0 .6.1 1 0 1.4 0 .4-.1.7-.2.9-.1.2-.2.4-.4.6-.3.2-.7.4-1.2.6-.5.1-1 .1-1.6 0-.5-.1-1-.3-1.3-.5-.4-.3-.6-.5-.7-.8v-.5c0-.1.1-.2.2-.2.4-.1.6-.3.7-.5.1-.3.2-.7.2-1.4s0-1.4-.1-2.3c0-.9-.1-1.7-.1-2.4s-.1-1.5-.1-2.3c0-1.7.2-2.9.6-3.5.2-.3.5-.6.9-.8.4-.2.7-.4.9-.5.2-.1.4-.1.5-.1h.2c.2 0 .3.2.3.4l.1.5c.4-.1.4.2.4.7zM96 73.7l2.8-.5c.1 0 .2 0 .3.1.1.1.1.2.2.4.1.6.3 1.5.3 2.8.1 1.3.2 2.6.2 3.8.1 1.3.2 2.1.3 2.5.1.4.2.6.3.7.1.1.2.1.4.1s.4-.3.8-.7c.4-.4.6-.8.7-1 .1-.2.2-.3.3-.4.2 0 .3.1.3.3.1.6-.2 1.5-1.2 2.7-.3.4-.7.8-1.2 1.2-.5.4-1 .6-1.6.8-1 .2-1.7-.2-2.2-1.4-.3 1.4-1 2.2-2 2.4-.7.2-1.4 0-2.1-.5-.7-.6-1.3-1.7-1.7-3.3-.4-1.7-.6-3.3-.4-4.8.1-1.7.6-2.9 1.4-3.8.4-.5.9-.8 1.5-.9.9-.2 1.7 0 2.4.8 0 0 0-.1-.1-.2l-.1-.5c-.1-.2 0-.5.4-.6zm-.5 10.6c.7-.2 1.1-1.5 1-3.8 0-1.1-.1-1.9-.3-2.6s-.3-1.1-.5-1.3c-.2-.2-.4-.3-.7-.2-.3.1-.6.5-.8 1.1-.2.7-.3 1.5-.3 2.4 0 .9.1 1.7.3 2.4.2.7.4 1.2.6 1.5.2.5.4.6.7.5zM101.8 72.6l2.7-.8c.1 0 .2 0 .3.1l.2.3c0 .1.1.3.1.5s.1.5.1.9c0 .3.1.6.1.7.1-.8.3-1.5.7-2.2.3-.7.6-1 1-1.1.7-.2 1.2 0 1.4.7.2.6.3 1.4.3 2.3 0 .9 0 1.6-.1 1.9-.1.1-.1.2-.3.3-.1 0-.3 0-.4-.1-.7-.6-1.3-.8-1.8-.6-.2.1-.4.1-.5.2.1 1.1.3 2.7.4 4.7.2 2.1.3 3.3.3 3.5 0 .4 0 .6-.2.6-.6.1-1.2.4-1.8.7l-1.1.5c-.1 0-.2 0-.3-.1l-.2-.3c0-.1-.1-.7-.2-1.6-.1-.9-.1-1.9-.2-3s-.2-2.3-.3-3.5c-.1-1.3-.3-2.3-.5-3.1l-.1-.4c-.1-.7 0-1 .4-1.1zM113.5 69.7l1.4-.8c.3-.1.5.1.6.6.1.4.1.8-.2.9-.2.2-.8.5-1.7.9 0 .7.1 1.7.1 3 .1 2.6.2 4.2.3 4.7.1.5.4.8.7.7 1.1-.3 2-.9 2.7-1.9.1-.1.2-.2.3-.2.1 0 .2.1.3.3.1.3 0 .5-.1.8-.4.9-1.1 1.7-2.1 2.5s-2 1.3-3 1.6c-.6.1-1 .1-1.4-.2-.4-.3-.7-.7-.8-1.3-.2-.6-.2-1.8-.3-3.6 0-2-.1-3.7-.3-5.2-.2.1-.4.1-.5.2-.2.1-.4-.1-.5-.5-.1-.3-.1-.5 0-.6l.2-.3c.1-.1.1-.1.2-.1l.2-.1c.1 0 .2-.1.2-.1-.1-.6-.2-1.2-.4-1.7l-.1-.4c-.1-.3.1-.6.5-.9l1.3-.9c.7-.6 1.1-.8 1.3-.9.3-.1.5.1.6.5.3.9.4 1.8.5 3zM129 74.8c.1 0 .3.1.3.3.1.3.1.5 0 .8-.1.2-.2.5-.5.9-.2.3-.5.7-.8 1.1-.3.4-.7.8-1.2 1.2-.5.4-1 .6-1.5.7-1.2.3-1.9-.1-2.1-1.1-.2-.7-.3-1.9-.3-3.8-.1-1.8-.2-3.1-.3-3.7-.2-.7-.5-1-1.1-.8-.2.1-.5.2-.8.4.1 1.1.3 2.8.5 5.1.2 2.4.3 3.7.3 4 0 .3 0 .5-.2.5l-3 .9s-.1 0-.2-.1l-.2-.3c0-.1-.1-.7-.1-1.6-.1-.9-.1-1.9-.2-2.9-.1-1.1-.2-2.2-.3-3.4-.1-1.2-.3-2.3-.5-3l-.1-.4c-.1-.4 0-.6.4-.7l2.7-.8c.1 0 .2 0 .3.1.1.1.1.2.2.4 0 .2.1.5.2.9 1.1-1.5 2.1-2.3 3-2.6.4-.1.8 0 1.2.3.5.4.8 1 1.1 1.9.2.9.4 2.2.4 3.9 0 1.6.1 2.6.2 3 .2.7.4 1 .7 1 .2 0 .5-.3.8-.7.4-.4.6-.7.8-.9.1-.5.2-.6.3-.6zM138.1 72.4c.1 0 .2.1.3.3.1.3 0 .5-.1.8-.1.3-.3.5-.5.9-.2.3-.5.7-.9 1.2-.9 1-2.1 1.8-3.5 2.1-2.6.7-4.4-.6-5.2-3.8-.4-1.6-.5-3-.3-4.4.2-1.3.6-2.4 1.3-3.3.7-.9 1.5-1.4 2.5-1.7 1-.3 1.8-.1 2.4.3.6.5 1.1 1.3 1.3 2.3.3 1.1.3 2 0 2.9-.3.8-.7 1.5-1.4 2s-1.4 1-2.4 1.4c.4 1.2 1 1.8 1.9 1.9.2 0 .5 0 .7-.1.9-.2 2.1-1.1 3.5-2.7.3 0 .4-.1.4-.1zm-6.6-.3c.6-.5 1-1.3 1.2-2.1.2-.9.2-1.8-.1-2.9-.1-.3-.2-.5-.3-.6-.1-.1-.3-.2-.5-.1-.2 0-.3.3-.5.6-.1.4-.2.8-.2 1.4 0 1.1.1 2.4.4 3.7zM137.4 63.4l2.7-.8c.1 0 .2 0 .3.1l.2.3c0 .1.1.3.1.5s.1.5.1.9c0 .3.1.6.1.7.1-.8.3-1.5.7-2.2s.6-1 1-1.1c.7-.2 1.2 0 1.4.7.2.6.3 1.4.3 2.3 0 .9 0 1.6-.1 1.9-.1.1-.1.2-.3.3-.1 0-.3 0-.4-.1-.7-.6-1.3-.8-1.8-.6-.2.1-.4.1-.5.2.1 1.1.3 2.7.4 4.7.2 2.1.3 3.3.3 3.5 0 .4 0 .6-.2.6-.6.1-1.2.4-1.8.7l-1.1.5c-.1 0-.2 0-.3-.1l-.2-.3c0-.1-.1-.7-.2-1.6-.1-.9-.1-1.9-.2-3s-.2-2.3-.3-3.5c-.1-1.3-.3-2.3-.5-3.1l-.1-.4c-.2-.7 0-1 .4-1.1z"/></g><g fill="#0B6300"><path d="M99 16.8c0-.2 0-.4-.1-.6l-.4-.6-.1-.2s0-.1.1-.1h1.9l.1.1s-.1.1-.1.2l-.4.6c-.1.1-.1.3-.1.6v13h.5c.1 0 .3-.1.3-.3l.8-4c0-.1 0-.1.1-.1l.1.1v5.1c0 .2 0 .3-.1.3h-3l-.1-.1.1-.2.4-.6c.1-.1.1-.3.1-.6v-12.6zM105.3 27.3c0-.1 0-.2-.1-.2h-.9l-.1.1-.2 2.3c0 .1 0 .3.1.4l.3.5c0 .1.1.2.1.2 0 .1 0 .1-.1.1h-1.4l-.1-.1c0-.1 0-.1.1-.2l.3-.6c.1-.1.1-.3.1-.5l1.1-13.9c0-.1 0-.2.1-.2h.5c.1 0 .1.1.1.2l1.2 13.8c0 .2 0 .4.1.6l.4.5.1.2c0 .1 0 .1-.1.1h-1.8c-.1 0-.1-.1-.1-.1 0-.1 0-.1.1-.2l.3-.6c0-.1.1-.2.1-.4l-.2-2zm-.2-1.3s.1-.1 0-.1l-.4-5.1-.4 5.1v.1h.8zM109.5 29.3c0 .2 0 .4.1.6l.4.6.1.2c0 .1 0 .1-.1.1h-1.9l-.1-.1.1-.2.4-.6c.1-.1.1-.3.1-.6v-12.5c0-.2 0-.4-.1-.6l-.4-.6-.1-.2s0-.1.1-.1h1.5c1.3 0 1.9 1.1 1.9 3.8 0 2.3-.5 3.2-.9 3.7.4.4.8 1.2.8 2.3v4.3c0 .1 0 .3.1.4l.4.7c0 .1.1.2.1.2 0 .1-.1.1-.1.1h-.6c-.6 0-.8-.6-.8-1.3v-4.5c0-.9-.3-1.6-.8-1.6h-.2v5.9zm0-6.9h.2c.6 0 .8-.8.8-3.3 0-2.1-.2-2.8-.8-2.8h-.2v6.1zM115.5 24.2c0-.2 0-.3-.1-.5l-.3-.5-.1-.2c0-.1 0-.1.1-.1h1.8s.1 0 .1.1 0 .1-.1.2l-.4.5c-.1.1-.1.2-.1.5v6.5c0 .1 0 .1-.1.1 0 0-.1 0-.1-.1l-.4-.6c0-.1-.1-.1-.1-.1s-.1 0-.1.1c-.3.4-.5.6-.8.6-1.5 0-1.6-4.7-1.6-8.1 0-2.5.1-7.3 1.6-7.3.4 0 .7.3.8.5 0 .1.1.1.2.1s.2-.1.3-.3c.1-.2.2-.3.2-.3s.1.1.1.4v5c0 .1 0 .1-.1.1 0 0-.1-.1-.1-.2-.3-1.5-.8-4.2-1.3-4.2s-.7 2-.7 6.3c0 5.9.1 7.1.6 7.1.4 0 .7-.8.7-2.7v-2.9zM119.5 22.3h.3c.1 0 .1 0 .1-.1l.4-1.4c0-.1 0-.1.1-.1v4.6l-.1-.1-.4-1.5c0-.1-.1-.1-.1-.1h-.3v6.3h.7c.2 0 .3-.1.3-.4l.7-4c0-.1 0-.1.1-.1l.1.1v5.2c0 .1 0 .2-.1.2h-3.2l-.1-.1.1-.2.4-.6c.1-.1.1-.3.1-.6v-12.6c0-.2 0-.4-.1-.6l-.4-.6-.1-.2s0-.1.1-.1h3.2s.1.1.1.2v5.1c0 .1 0 .1-.1.1l-.1-.1-.7-3.9c0-.3-.2-.4-.3-.4h-.7v6z"/></g></g></svg>