<svg xmlns="http://www.w3.org/2000/svg" viewBox="0 0 220 120" enable-background="new 0 0 220 120"><g><path fill="#3E8EDE" d="M167.1 30.4l-17-17h-80.6l-16.9 16.9v56.1l17.1 17.1h80.3l17.1-17.1z"/><path fill="#630055" d="M52.6 37.1h114.6v41.6h-114.6z"/><path fill="#fff" d="M52.6 50.1h7.7v1.7h-7.7zM52.6 55h7.7v1.7h-7.7zM52.6 59.9h7.7v1.7h-7.7zM52.6 64.8h7.7v1.7h-7.7zM159.5 50.1h7.7v1.7h-7.7zM159.5 55h7.7v1.7h-7.7zM159.5 59.9h7.7v1.7h-7.7zM159.5 64.8h7.7v1.7h-7.7z"/><path fill="#3E8EDE" d="M109.83 70.391l22.062 22.062-22.062 22.062-22.062-22.062zM109.864 4.704l22.062 22.062-22.062 22.062-22.062-22.062z"/><path fill="#630055" d="M109.862 8.523l18.385 18.385-18.385 18.385-18.385-18.385z"/><g fill="#fff"><path d="M71.2 50h8.4v3.2h-2.1v11.3h4.3c.1 0 .2 0 .3-.1l.3-.2.2-.3c.1-.1.1-.2.1-.3v-2.4h4.2v6.5h-15.7v-3.2h2v-11.3h-2v-3.2zM91.2 50h15.6v6h-4.2v-2.5h-5v3.5h3.9v3.4h-3.9v4.1h5v-3.2h4.2v6.4h-15.6v-3.2h2.1v-11h-2.1v-3.5zM121.8 64.5h2l-.9-2.6h-6l-.9 2.6h2.1v3.2h-7.4v-3.2h1.5l5.3-14.6h5.2l5.2 14.6h1.4v3.2h-7.4v-3.2zm-4-5.5h4l-2-5.8-2 5.8zM133.2 50h7.5c.9 0 1.8.1 2.6.3.8.2 1.6.5 2.3.9.7.4 1.4.8 1.9 1.4.6.5 1.1 1.1 1.5 1.8.4.7.7 1.4 1 2.1.2.8.3 1.5.3 2.4 0 .8-.1 1.6-.3 2.4-.2.8-.5 1.5-1 2.1-.4.7-.9 1.3-1.5 1.8s-1.2 1-1.9 1.4c-.7.4-1.5.7-2.3.9-.8.2-1.7.3-2.6.3h-7.5v-3.2h1.6v-11.4h-1.6v-3.2zm5.8 3.2v11.3h1.6c.7 0 1.4-.1 2-.4.6-.3 1.2-.7 1.6-1.2.5-.5.8-1.1 1.1-1.8.3-.7.4-1.4.4-2.2 0-.8-.1-1.5-.4-2.2-.3-.7-.6-1.3-1.1-1.8-.5-.5-1-.9-1.6-1.2-.6-.3-1.3-.4-2-.4h-1.6z"/></g><g fill="#fff"><path d="M74.8 88.2c0 .5-.1.8-.3 1.1-.2.3-.4.6-.7.8-.3.2-.6.3-1 .4-.4.1-.8.1-1.2.1h-.9v2.9h-1.9v-7.8h2.9c.4 0 .8 0 1.2.1.4.1.7.2 1 .4.3.2.5.4.6.7.2.5.3.8.3 1.3zm-1.9 0c0-.2 0-.3-.1-.5l-.3-.3c-.1-.1-.3-.1-.4-.1h-1.3v1.8h1.3c.2 0 .3-.1.4-.2l.3-.3c0-.1.1-.2.1-.4zM86 93.6l-.6-1.6h-3l-.6 1.5h-2l3.3-7.8h1.8l3.2 7.8h-2.1zm-2.1-5.7l-1 2.7h2l-1-2.7zM98.4 93.6l-1.7-3.1h-.6v3.1h-1.8v-7.8h3c.4 0 .7 0 1.1.1.4.1.7.2 1 .4.3.2.5.4.7.7.2.3.3.7.3 1.1 0 .5-.1 1-.4 1.3-.3.4-.7.6-1.2.8l2 3.3h-2.4zm-.1-5.4c0-.2 0-.3-.1-.4l-.3-.3c-.1-.1-.3-.1-.4-.1h-1.4v1.8h1.4c.2 0 .3-.1.4-.1l.3-.3c.1-.3.1-.4.1-.6zM110.2 87.4v6.2h-1.9v-6.2h-2.2v-1.6h6.3v1.6h-2.2zM123.8 93.6l-3.1-5.1v5.1h-1.8v-7.8h2.1l3.1 5.1v-5.1h1.8v7.8h-2.1zM133 93.6v-7.8h5.2v1.6h-3.4v1.5h3.2v1.5h-3.2v1.6h3.6v1.6h-5.4zM149.3 93.6l-1.7-3.1h-.6v3.1h-1.8v-7.8h3c.4 0 .7 0 1.1.1.4.1.7.2 1 .4.3.2.5.4.7.7.2.3.3.7.3 1.1 0 .5-.1 1-.4 1.3-.3.4-.7.6-1.2.8l2 3.3h-2.4zm0-5.4c0-.2 0-.3-.1-.4l-.3-.3c-.1-.1-.3-.1-.4-.1h-1.4v1.8h1.4c.2 0 .3-.1.4-.1l.3-.3c0-.3.1-.4.1-.6z"/></g><g fill="#fff"><path d="M99.6 22.6l-.1-.3-.4-.5-.1-.2s0-.1.1-.1h1.7s.1 0 .1.1 0 .1-.1.1l-.3.4c-.1.1-.1.2-.1.3l.5 2.6.6-2.6c0-.1 0-.2-.1-.3l-.4-.4-.1-.1.1-.1h1.6s.1 0 .1.1 0 .1-.1.2l-.4.5c-.1.1-.1.2-.1.3l-1 4 .9 4.2c0 .2.1.3.2.4l.4.5c.1.1.1.2.1.2s0 .1-.1.1h-1.6s-.1 0-.1-.1 0-.1.1-.2l.3-.5c0-.1.1-.2 0-.3l-.5-2.5-.5 2.4v.3l.4.5c.1.1.1.1.1.2 0 0 0 .1-.1.1h-1.6c-.1 0-.1 0-.1-.1s0-.1.1-.2l.4-.5c.1-.1.1-.2.2-.4l.9-3.8-1-4.3zM103.7 22.6c0-.2 0-.3-.1-.4l-.3-.4-.1-.1s0-.1.1-.1h1.7s.1 0 .1.1l-.1.1-.3.4c-.1.1-.1.2-.1.4v8.6h.4c.1 0 .2 0 .3-.2l.7-2.7c0-.1 0-.1.1-.1 0 0 .1 0 .1.1v3.4c0 .1 0 .2-.1.2h-2.7s-.1 0-.1-.1l.1-.1.3-.4c.1-.1.1-.2.1-.4v-8.3zM108.6 29.6c0-.1 0-.1-.1-.1h-.8s-.1 0-.1.1l-.2 1.5c0 .1 0 .2.1.2l.2.3.1.2s0 .1-.1.1h-1.3s-.1 0-.1-.1c0 0 0-.1.1-.1l.3-.4c.1-.1.1-.2.1-.3l1-9.2c0-.1 0-.1.1-.1h.4c.1 0 .1.1.1.2l1 9.2c0 .1 0 .3.1.4l.3.4.1.1s0 .1-.1.1h-1.6c-.1 0-.1 0-.1-.1 0 0 0-.1.1-.1l.3-.4.1-.3v-1.6zm-.2-.8c.1 0 .1-.1 0 0l-.3-3.5-.4 3.4v.1h.7zM111.7 30.9c0 .2 0 .3.1.4l.3.4.1.1s0 .1-.1.1h-1.7s-.1 0-.1-.1l.1-.1.3-.4c.1-.1.1-.2.1-.4v-8.3c0-.2 0-.3-.1-.4l-.3-.4-.1-.1s0-.1.1-.1h1.4c1.1 0 1.7.8 1.7 2.5 0 1.5-.4 2.1-.8 2.4.4.2.7.8.7 1.5v3c0 .1 0 .2.1.2l.4.5.1.2h-.7c-.5 0-.7-.4-.7-.9v-2.9c0-.6-.3-1.1-.7-1.1h-.2v3.9zm0-4.6h.2c.5 0 .8-.5.8-2.2 0-1.4-.2-1.9-.8-1.9h-.2v4.1zM116.3 27.5c0-.1 0-.2-.1-.3l-.3-.3c0-.1-.1-.1-.1-.1 0-.1 0-.1.1-.1h1.6s.1 0 .1.1 0 .1-.1.1l-.3.3c-.1.1-.1.2-.1.3v4.3s0 .1-.1.1c0 0-.1 0-.1-.1l-.3-.4-.1-.1s-.1 0-.1.1c-.2.3-.5.4-.7.4-1.4 0-1.4-3.1-1.4-5.4 0-1.7.1-4.9 1.4-4.9.4 0 .6.2.7.3 0 0 .1.1.2.1s.2-.1.3-.2l.2-.2c.1 0 .1.1.1.2v3.3c0 .1 0 .1-.1.1l-.1-.1c-.2-1-.7-2.8-1.2-2.8s-.6 1.3-.6 4.2c0 4 .1 4.7.5 4.7.3 0 .6-.5.6-1.8v-1.8zM119.2 26.3h.2c.1 0 .1 0 .1-.1l.4-1c0-.1 0-.1.1-.1v3.1s-.1 0-.1-.1l-.4-1c0-.1-.1-.1-.1-.1h-.2v4.2h.6c.1 0 .3-.1.3-.2l.6-2.6c0-.1 0-.1.1-.1 0 0 .1 0 .1.1v3.4c0 .1 0 .1-.1.1h-2.8s-.1 0-.1-.1l.1-.1.3-.4c.1-.1.1-.2.1-.4v-8.3c0-.2 0-.3-.1-.4l-.3-.4-.1-.1s0-.1.1-.1h2.8l.1.1v3.4c0 .1 0 .1-.1.1 0 0-.1 0-.1-.1l-.6-2.6c0-.2-.1-.3-.3-.3h-.6v4.1z"/></g><path fill="#3E8EDE" d="M167.1 30.4l-17-17h-80.6l-16.9 16.9v56.1l17.1 17.1h80.3l17.1-17.1z"/><path fill="#630055" d="M52.6 37.1h114.6v41.6h-114.6z"/><path fill="#fff" d="M52.6 50.1h7.7v1.7h-7.7zM52.6 55h7.7v1.7h-7.7zM52.6 59.9h7.7v1.7h-7.7zM52.6 64.8h7.7v1.7h-7.7zM159.5 50.1h7.7v1.7h-7.7zM159.5 55h7.7v1.7h-7.7zM159.5 59.9h7.7v1.7h-7.7zM159.5 64.8h7.7v1.7h-7.7z"/><path fill="#3E8EDE" d="M109.83 70.391l22.062 22.062-22.062 22.062-22.062-22.062zM109.864 4.704l22.062 22.062-22.062 22.062-22.062-22.062z"/><path fill="#630055" d="M109.862 8.523l18.385 18.385-18.385 18.385-18.385-18.385z"/><g fill="#fff"><path d="M71.2 50h8.4v3.2h-2.1v11.3h4.3c.1 0 .2 0 .3-.1l.3-.2.2-.3c.1-.1.1-.2.1-.3v-2.4h4.2v6.5h-15.7v-3.2h2v-11.3h-2v-3.2zM91.2 50h15.6v6h-4.2v-2.5h-5v3.5h3.9v3.4h-3.9v4.1h5v-3.2h4.2v6.4h-15.6v-3.2h2.1v-11h-2.1v-3.5zM121.8 64.5h2l-.9-2.6h-6l-.9 2.6h2.1v3.2h-7.4v-3.2h1.5l5.3-14.6h5.2l5.2 14.6h1.4v3.2h-7.4v-3.2zm-4-5.5h4l-2-5.8-2 5.8zM133.2 50h7.5c.9 0 1.8.1 2.6.3.8.2 1.6.5 2.3.9.7.4 1.4.8 1.9 1.4.6.5 1.1 1.1 1.5 1.8.4.7.7 1.4 1 2.1.2.8.3 1.5.3 2.4 0 .8-.1 1.6-.3 2.4-.2.8-.5 1.5-1 2.1-.4.7-.9 1.3-1.5 1.8s-1.2 1-1.9 1.4c-.7.4-1.5.7-2.3.9-.8.2-1.7.3-2.6.3h-7.5v-3.2h1.6v-11.4h-1.6v-3.2zm5.8 3.2v11.3h1.6c.7 0 1.4-.1 2-.4.6-.3 1.2-.7 1.6-1.2.5-.5.8-1.1 1.1-1.8.3-.7.4-1.4.4-2.2 0-.8-.1-1.5-.4-2.2-.3-.7-.6-1.3-1.1-1.8-.5-.5-1-.9-1.6-1.2-.6-.3-1.3-.4-2-.4h-1.6z"/></g><g fill="#fff"><path d="M74.8 88.2c0 .5-.1.8-.3 1.1-.2.3-.4.6-.7.8-.3.2-.6.3-1 .4-.4.1-.8.1-1.2.1h-.9v2.9h-1.9v-7.8h2.9c.4 0 .8 0 1.2.1.4.1.7.2 1 .4.3.2.5.4.6.7.2.5.3.8.3 1.3zm-1.9 0c0-.2 0-.3-.1-.5l-.3-.3c-.1-.1-.3-.1-.4-.1h-1.3v1.8h1.3c.2 0 .3-.1.4-.2l.3-.3c0-.1.1-.2.1-.4zM86 93.6l-.6-1.6h-3l-.6 1.5h-2l3.3-7.8h1.8l3.2 7.8h-2.1zm-2.1-5.7l-1 2.7h2l-1-2.7zM98.4 93.6l-1.7-3.1h-.6v3.1h-1.8v-7.8h3c.4 0 .7 0 1.1.1.4.1.7.2 1 .4.3.2.5.4.7.7.2.3.3.7.3 1.1 0 .5-.1 1-.4 1.3-.3.4-.7.6-1.2.8l2 3.3h-2.4zm-.1-5.4c0-.2 0-.3-.1-.4l-.3-.3c-.1-.1-.3-.1-.4-.1h-1.4v1.8h1.4c.2 0 .3-.1.4-.1l.3-.3c.1-.3.1-.4.1-.6zM110.2 87.4v6.2h-1.9v-6.2h-2.2v-1.6h6.3v1.6h-2.2zM123.8 93.6l-3.1-5.1v5.1h-1.8v-7.8h2.1l3.1 5.1v-5.1h1.8v7.8h-2.1zM133 93.6v-7.8h5.2v1.6h-3.4v1.5h3.2v1.5h-3.2v1.6h3.6v1.6h-5.4zM149.3 93.6l-1.7-3.1h-.6v3.1h-1.8v-7.8h3c.4 0 .7 0 1.1.1.4.1.7.2 1 .4.3.2.5.4.7.7.2.3.3.7.3 1.1 0 .5-.1 1-.4 1.3-.3.4-.7.6-1.2.8l2 3.3h-2.4zm0-5.4c0-.2 0-.3-.1-.4l-.3-.3c-.1-.1-.3-.1-.4-.1h-1.4v1.8h1.4c.2 0 .3-.1.4-.1l.3-.3c0-.3.1-.4.1-.6z"/></g><g fill="#fff"><path d="M99.6 22.6l-.1-.3-.4-.5-.1-.2s0-.1.1-.1h1.7s.1 0 .1.1 0 .1-.1.1l-.3.4c-.1.1-.1.2-.1.3l.5 2.6.6-2.6c0-.1 0-.2-.1-.3l-.4-.4-.1-.1.1-.1h1.6s.1 0 .1.1 0 .1-.1.2l-.4.5c-.1.1-.1.2-.1.3l-1 4 .9 4.2c0 .2.1.3.2.4l.4.5c.1.1.1.2.1.2s0 .1-.1.1h-1.6s-.1 0-.1-.1 0-.1.1-.2l.3-.5c0-.1.1-.2 0-.3l-.5-2.5-.5 2.4v.3l.4.5c.1.1.1.1.1.2 0 0 0 .1-.1.1h-1.6c-.1 0-.1 0-.1-.1s0-.1.1-.2l.4-.5c.1-.1.1-.2.2-.4l.9-3.8-1-4.3zM103.7 22.6c0-.2 0-.3-.1-.4l-.3-.4-.1-.1s0-.1.1-.1h1.7s.1 0 .1.1l-.1.1-.3.4c-.1.1-.1.2-.1.4v8.6h.4c.1 0 .2 0 .3-.2l.7-2.7c0-.1 0-.1.1-.1 0 0 .1 0 .1.1v3.4c0 .1 0 .2-.1.2h-2.7s-.1 0-.1-.1l.1-.1.3-.4c.1-.1.1-.2.1-.4v-8.3zM108.6 29.6c0-.1 0-.1-.1-.1h-.8s-.1 0-.1.1l-.2 1.5c0 .1 0 .2.1.2l.2.3.1.2s0 .1-.1.1h-1.3s-.1 0-.1-.1c0 0 0-.1.1-.1l.3-.4c.1-.1.1-.2.1-.3l1-9.2c0-.1 0-.1.1-.1h.4c.1 0 .1.1.1.2l1 9.2c0 .1 0 .3.1.4l.3.4.1.1s0 .1-.1.1h-1.6c-.1 0-.1 0-.1-.1 0 0 0-.1.1-.1l.3-.4.1-.3v-1.6zm-.2-.8c.1 0 .1-.1 0 0l-.3-3.5-.4 3.4v.1h.7zM111.7 30.9c0 .2 0 .3.1.4l.3.4.1.1s0 .1-.1.1h-1.7s-.1 0-.1-.1l.1-.1.3-.4c.1-.1.1-.2.1-.4v-8.3c0-.2 0-.3-.1-.4l-.3-.4-.1-.1s0-.1.1-.1h1.4c1.1 0 1.7.8 1.7 2.5 0 1.5-.4 2.1-.8 2.4.4.2.7.8.7 1.5v3c0 .1 0 .2.1.2l.4.5.1.2h-.7c-.5 0-.7-.4-.7-.9v-2.9c0-.6-.3-1.1-.7-1.1h-.2v3.9zm0-4.6h.2c.5 0 .8-.5.8-2.2 0-1.4-.2-1.9-.8-1.9h-.2v4.1zM116.3 27.5c0-.1 0-.2-.1-.3l-.3-.3c0-.1-.1-.1-.1-.1 0-.1 0-.1.1-.1h1.6s.1 0 .1.1 0 .1-.1.1l-.3.3c-.1.1-.1.2-.1.3v4.3s0 .1-.1.1c0 0-.1 0-.1-.1l-.3-.4-.1-.1s-.1 0-.1.1c-.2.3-.5.4-.7.4-1.4 0-1.4-3.1-1.4-5.4 0-1.7.1-4.9 1.4-4.9.4 0 .6.2.7.3 0 0 .1.1.2.1s.2-.1.3-.2l.2-.2c.1 0 .1.1.1.2v3.3c0 .1 0 .1-.1.1l-.1-.1c-.2-1-.7-2.8-1.2-2.8s-.6 1.3-.6 4.2c0 4 .1 4.7.5 4.7.3 0 .6-.5.6-1.8v-1.8zM119.2 26.3h.2c.1 0 .1 0 .1-.1l.4-1c0-.1 0-.1.1-.1v3.1s-.1 0-.1-.1l-.4-1c0-.1-.1-.1-.1-.1h-.2v4.2h.6c.1 0 .3-.1.3-.2l.6-2.6c0-.1 0-.1.1-.1 0 0 .1 0 .1.1v3.4c0 .1 0 .1-.1.1h-2.8s-.1 0-.1-.1l.1-.1.3-.4c.1-.1.1-.2.1-.4v-8.3c0-.2 0-.3-.1-.4l-.3-.4-.1-.1s0-.1.1-.1h2.8l.1.1v3.4c0 .1 0 .1-.1.1 0 0-.1 0-.1-.1l-.6-2.6c0-.2-.1-.3-.3-.3h-.6v4.1z"/></g></g></svg>