<svg xmlns="http://www.w3.org/2000/svg" viewBox="0 0 220 120" enable-background="new 0 0 220 120"><g><g fill="#808080"><path d="M37.7 49.4l2.9 1.4c-.8 1.4-1.8 2.6-3 3.5-1.3.9-2.6 1.5-4.1 1.8-2.3.4-4.3.1-6-1-1.7-1.1-2.8-2.6-3.2-4.7-.5-2.5.2-4.9 2-7.2s4.1-3.7 7-4.2c2-.4 3.5 0 4.8 1l.1-1.6 2.6-.5-.2 5.5-2.6.5c-.6-1.7-2-2.4-4.1-2-1.7.3-3.1 1.3-4.1 2.9s-1.4 3.3-1.1 5.1c.2 1.2.7 2 1.6 2.6.8.6 1.8.8 2.9.6 1.7-.3 3.3-1.6 4.5-3.7zM52.1 52.6c-2 .4-3.8.1-5.4-.9-1.6-1-2.5-2.5-2.9-4.4-.5-2.6.1-5.1 1.7-7.5s3.8-3.8 6.7-4.4c2.2-.4 4.1-.1 5.7.9 1.6 1 2.5 2.5 2.9 4.4.5 2.7-.1 5.3-1.7 7.6-1.8 2.3-4.1 3.8-7 4.3zm4.3-11.4c-.2-1-.7-1.8-1.4-2.3-.8-.5-1.6-.7-2.6-.5-1.6.3-2.8 1.3-3.6 3.1-.7 1.8-1 3.5-.6 5.3.2 1.1.7 1.9 1.4 2.4s1.6.7 2.7.5c1.7-.3 2.9-1.4 3.6-3.2.6-1.8.8-3.6.5-5.3zM63.8 50.2l.1-2.6 1.6-.3.5-11.5-1.6.3.1-2.6 7.1-1.3 3.2 9.4 4.1-10.8 7.4-1.4-.2 2.6-1.2.2-.5 11.5 1.7-.3-.1 2.6-7 1.3.1-2.6 1.5-.3.5-11.5-.3.1-5.7 15.1-1.7.3-4.4-13.2-.4.1-.5 11.5 1.5-.3-.1 2.6-5.7 1.1zM89.1 45.4l.1-2.6 1.6-.3.5-11.5-1.6.3.1-2.6 7.1-1.3 3.2 9.4 4.1-10.8 7.4-1.4-.1 2.6-1.2.2-.5 11.5 1.7-.3-.1 2.6-7 1.3.1-2.6 1.5-.3.5-11.5-.3.1-5.7 15.1-1.7.3-4.4-13.2-.4.1-.6 11.5 1.5-.3-.1 2.6-5.7 1.1zM115.5 26.5l.1-2.6 7-1.3-.1 2.6-1.6.3-.4 8.3c0 .4 0 .7.1 1 .2 1.3 1.1 1.8 2.6 1.6.8-.2 1.4-.6 1.9-1.3.4-.7.6-1.7.7-3.1l.3-7.5-1.5.3.1-2.6 5.5-1-.1 2.6-1.2.2-.3 8.4c-.1 2-.6 3.6-1.5 4.7s-2.3 1.9-4.1 2.2c-1.4.3-2.8.2-4-.3-1.2-.5-2-1.5-2.3-3.1-.1-.6-.2-1.3-.1-2.1l.3-7.6-1.4.3zM132.4 37.3l.1-2.6 1.5-.3.5-11.5-1.5.3.1-2.6 6-1.1 5.8 10.4.3-9-1.5.3.1-2.6 5.8-1.1-.1 2.6-1.5.3-.6 14.3-3.5.7-6.6-12.1-.4 10.7 1.7-.3-.1 2.6-6.1 1zM151.8 33.6l.1-2.6 2-.4.5-11.5-2.3.4.1-2.6 8.1-1.5-.1 2.6-1.8.3-.4 11.5 2.3-.4-.1 2.6-8.4 1.6zM166 31l.1-2.6 1.9-.4.5-11.5-2.5.5-.1 3.9-2.6.5.3-6.5 14.3-2.7-.3 6.5-2.6.5.2-3.9-2.5.5-.5 11.5 1.8-.3-.1 2.6-7.9 1.4zM183 27.8l.1-2.6 1.5-.3.2-4.6-4-6.1-1.6.3.1-2.6 6.7-1.3-.1 2.6-1.3.2 2.5 4.1 2.9-5.2-1.3.2.1-2.6 6.4-1.2-.1 2.6-1.5.3-4.8 7.7-.2 4.6 1.6-.3-.1 2.6-7.1 1.6z"/></g><g fill="#0B6300" stroke="#fff" stroke-width=".5" stroke-miterlimit="10"><path d="M35.1 49.9l2.9 1.4c-.8 1.4-1.8 2.6-3 3.5-1.3.9-2.6 1.5-4.1 1.8-2.3.4-4.3.1-6-1-1.7-1.1-2.8-2.6-3.2-4.7-.5-2.5.2-4.9 2-7.2s4.1-3.7 7-4.2c2-.4 3.5 0 4.8 1l.1-1.6 2.6-.5-.3 5.6-2.6.5c-.6-1.7-2-2.4-4.1-2-1.7.3-3.1 1.3-4.1 2.9s-1.4 3.3-1.1 5.1c.2 1.2.7 2 1.6 2.6.8.6 1.8.8 2.9.6 1.9-.4 3.4-1.6 4.6-3.8zM49.6 53.2c-2 .4-3.8.1-5.4-.9-1.6-1-2.5-2.5-2.9-4.4-.5-2.6.1-5.1 1.7-7.5s3.8-3.8 6.7-4.4c2.2-.4 4.1-.1 5.7.9 1.6 1 2.5 2.5 2.9 4.4.5 2.7-.1 5.3-1.7 7.6-1.8 2.3-4.1 3.7-7 4.3zm4.2-11.5c-.2-1-.7-1.8-1.4-2.3-.8-.5-1.6-.7-2.6-.5-1.6.3-2.8 1.3-3.6 3.1-.7 1.8-1 3.5-.6 5.3.2 1.1.7 1.9 1.4 2.4s1.6.7 2.7.5c1.7-.3 2.9-1.4 3.6-3.2.7-1.8.8-3.5.5-5.3zM61.3 50.8l.1-2.6 1.6-.3.5-11.5-1.6.3.1-2.7 7.1-1.3 3.2 9.4 4.1-10.8 7.4-1.4-.1 2.6-1.2.2-.5 11.5 1.7-.3-.1 2.6-7 1.3.1-2.6 1.3-.2.5-11.5-.3.1-5.7 15.1-1.7.3-4.4-13.2-.4.1-.5 11.5 1.5-.3-.1 2.6-5.6 1.1zM86.6 46l.1-2.6 1.6-.3.5-11.5-1.6.3.1-2.6 7.1-1.3 3.2 9.4 4.1-10.8 7.4-1.4-.1 2.6-1.2.2-.5 11.5 1.7-.3-.1 2.6-7 1.3.1-2.6 1.5-.3.5-11.5-.3.1-5.7 15.1-1.7.3-4.6-13.2-.4.1-.5 11.5 1.5-.3-.1 2.6-5.6 1.1zM112.9 27l.1-2.6 7-1.3-.1 2.6-1.6.3-.4 8.3c0 .4 0 .7.1 1 .2 1.3 1.1 1.8 2.6 1.6.8-.2 1.4-.6 1.9-1.3.4-.7.6-1.7.7-3.1l.3-7.5-1.5.3.1-2.6 5.5-1-.1 2.6-1.2.2-.3 8.4c-.1 2-.6 3.6-1.5 4.7s-2.3 1.9-4.1 2.2c-1.4.3-2.8.2-4-.3-1.2-.5-2-1.5-2.3-3.1-.1-.6-.2-1.3-.1-2.1l.3-7.6-1.4.3zM129.8 37.8l.1-2.6 1.5-.3.5-11.5-1.5.3.1-2.6 6-1.1 5.8 10.4.3-9-1.5.3.1-2.6 5.8-1.1-.1 2.6-1.5.3-.6 14.3-3.5.7-6.6-12.1-.4 10.7 1.7-.3-.1 2.6-6.1 1zM149.3 34.2l.1-2.6 2-.4.5-11.5-2.3.4.1-2.6 8.1-1.5-.1 2.6-1.8.3-.5 11.5 2.3-.4-.1 2.6-8.3 1.6zM163.5 31.5l.1-2.6 1.8-.3.5-11.5-2.5.5-.1 3.9-2.6.5.3-6.5 14.3-2.7-.3 6.5-2.6.5.2-3.9-2.5.5-.5 11.5 1.8-.3-.1 2.6-7.8 1.3zM180.4 28.3l.1-2.6 1.5-.3.2-4.6-4-6.1-1.6.3.1-2.6 6.7-1.3-.1 2.6-1.3.2 2.5 4.1 2.9-5.2-1.3.2.1-2.6 6.4-1.2-.1 2.6-1.5.3-4.8 7.7-.2 4.6 1.6-.3-.1 2.6-7.1 1.6z"/></g><g fill="#808080"><path d="M22.3 110.7l.2-2.8 2-.4 1.2-12.3-2.4.4.3-2.8 9-1.7c2.5-.5 4.5-.4 6 .3 1.5.6 2.3 1.8 2.6 3.4.3 1.7-.2 3.2-1.4 4.5-1.2 1.3-3.4 2.3-6.6 2.9l-3 .6-.4 3.7 2.5-.5-.2 2.8-9.8 1.9zm8.2-10.6l1.8-.3c1.3-.2 2.3-.7 2.9-1.5.6-.8.8-1.6.6-2.6-.3-1.4-1.4-1.9-3.3-1.6l-1.5.2-.5 5.8zM45.4 106.5l.3-2.8 2-.4 5.8-13.1-2 .4.2-2.8 12.1-2.2-.2 2.8-1.8.3 2.8 11.6 2.2-.4-.3 2.8-8.7 1.6.3-2.8 1.9-.4-.5-2.8-6.5 1.1-1.2 3.2 1.9-.4-.3 2.8-8 1.5zm13.4-10.7l-1.4-6.5h-.2l-3 7.3 4.6-.8zM72.9 101.4l.3-2.8 2.1-.4 1.1-12.2-2.1.4.2-2.8 10.9-2c1.9-.4 3.5-.2 4.7.5 1.2.7 2 1.7 2.2 3 .2 1.1 0 2.2-.7 3.2s-1.8 1.8-3.3 2.2l2.7 4.8 2.1-.4-.1 2.8-5.3 1-3.7-7.1-3 .5-.5 5.1 2-.4-.3 2.8-9.3 1.8zm8.4-11.6l2.3-.4c2.6-.5 3.8-1.6 3.5-3.4-.1-.6-.4-1-.9-1.3-.5-.3-1.2-.3-1.9-.2l-2.6.5-.4 4.8zM104.2 95.7l.3-2.8 2.4-.4 1.2-12.3-3.3.6-.4 4.2-3.4.6.7-7 18.6-3.4-.7 7-3.4.6.4-4.2-3.3.6-1.2 12.3 2.4-.4-.3 2.8-10 1.8zM127.5 91.4l.3-2.8 2-.4 1.2-12.3-2 .4.3-2.8 7.8-1.4 7 10.9.9-9.6-2 .4.3-2.8 7.6-1.4-.3 2.8-2 .4-1.6 15.2-4.6.8-8-12.7-1.1 11.4 2.2-.4-.3 2.8-7.7 1.5zM158.1 85.8l.3-2.8 2-.4 1.2-12.3-2 .4.2-2.8 17.1-3.1-.6 5.7-3.9.7.3-2.9-5.9 1.1-.4 4.6 4.9-.9-.3 2.8-4.9.9-.5 4.9 6-1.1.3-2.8 3.8-.7-.6 5.6-17 3.1zM183.8 81.1l.3-2.8 2.1-.4 1.2-12.3-2.1.4.2-2.8 10.9-2c1.9-.4 3.5-.2 4.7.5 1.2.7 2 1.7 2.2 3 .2 1.1 0 2.2-.7 3.2s-1.8 1.8-3.3 2.2l2.7 4.8 2.1-.4-.3 2.8-5.3 1-3.7-7.1-2.9.5-.5 5.2 2-.4-.3 2.8-9.3 1.8zm8.4-11.7l2.3-.4c2.6-.5 3.8-1.6 3.5-3.4-.1-.6-.4-1-.9-1.3-.5-.3-1.2-.3-1.9-.2l-2.4.4-.6 4.9z"/></g><g fill="#0B6300" stroke="#fff" stroke-width=".5" stroke-miterlimit="10"><path d="M18.9 111.3l.2-2.8 2-.4 1.2-12.3-2.3.5.3-2.8 9-1.7c2.5-.5 4.5-.4 6 .3 1.5.6 2.3 1.8 2.6 3.4.3 1.7-.2 3.2-1.4 4.5-1.2 1.3-3.4 2.3-6.6 2.9l-3 .6-.4 3.7 2.5-.5-.2 2.8-9.9 1.8zm8.2-10.7l1.8-.3c1.3-.2 2.3-.7 2.9-1.5.6-.8.8-1.6.6-2.6-.3-1.4-1.4-1.9-3.3-1.6l-1.4.3-.6 5.7zM42 107.1l.3-2.8 2-.4 5.8-13.1-2 .4.2-2.8 12.1-2.2-.2 2.8-1.8.3 2.8 11.6 2.2-.4-.3 2.8-8.7 1.6.3-2.8 1.9-.4-.6-2.9-6.4 1.2-1.2 3.2 1.9-.4-.3 2.8-8 1.5zm13.4-10.7l-1.4-6.5h-.2l-3 7.3 4.6-.8zM69.5 102l.3-2.8 2.1-.4 1.1-12.3-2 .4.2-2.8 10.9-2c1.9-.4 3.5-.2 4.7.5 1.2.7 2 1.7 2.2 3 .2 1.1 0 2.2-.7 3.2s-1.8 1.8-3.3 2.2l2.7 4.8 2.1-.4-.3 2.8-5.3 1-3.7-7.1-2.9.5-.5 5.1 2-.4-.3 2.8-9.3 1.9zm8.4-11.6l2.3-.4c2.6-.5 3.8-1.6 3.5-3.4-.1-.6-.4-1-.9-1.3-.5-.3-1.2-.3-1.9-.2l-2.4.4-.6 4.9zM100.8 96.2l.3-2.8 2.4-.4 1.2-12.3-3.3.6-.4 4.2-3.4.6.7-7 18.6-3.4-.7 7-3.4.6.4-4.2-3.3.6-1 12.3 2.4-.4-.3 2.8-10.2 1.8zM124.1 92l.3-2.8 2-.4 1.2-12.3-2 .4.3-2.8 7.8-1.4 7 10.9.9-9.6-2 .4.3-2.8 7.6-1.4-.3 2.8-2 .4-1.4 15.2-4.6.8-8-12.7-1.2 11.4 2.2-.4-.3 2.8-7.8 1.5zM154.7 86.4l.3-2.8 2-.4 1.2-12.3-2 .4.2-2.8 17.1-3.1-.5 5.6-3.9.7.3-2.9-5.9 1.1-.4 4.6 4.9-.9-.3 2.8-4.9.9-.5 4.9 6-1.1.3-2.8 3.8-.7-.6 5.6-17.1 3.2zM180.4 81.6l.3-2.8 2.1-.4 1.2-12.3-2.1.4.2-2.8 10.9-2c1.9-.4 3.5-.2 4.7.5 1.2.7 2 1.7 2.2 3 .2 1.1 0 2.2-.7 3.2s-1.8 1.8-3.3 2.2l2.7 4.8 2.1-.4-.3 2.8-5.3 1-3.7-7.1-2.9.5-.5 5.2 2-.4-.3 2.8-9.3 1.8zm8.4-11.6l2.3-.4c2.6-.5 3.8-1.6 3.5-3.4-.1-.6-.4-1-.9-1.3-.5-.3-1.2-.3-1.9-.2l-2.4.4-.6 4.9z"/></g><path fill="#630055" d="M21.5 89.3l12.2-14.5-12.2-12 176.4-32.9-11.4 15.6 11.7 11.2zM32.9 74.9l-12.7-12.5 179.2-33.4-12 16.5 12.2 11.7-178 32.8-1.7.3 13-15.4zm-10.9 14.9l-.4-.5.4.5zm.9-26.6l11.7 11.6-11.4 13.5 173.6-32-11.1-10.7 10.8-14.7-173.6 32.3z"/><path fill="#A8CAA0" d="M193.6 55.3l-167.2 31.2 10.1-11.9-10.2-10.1 167.1-31.5-9.5 13zM134.6 55.1c1.6 11.8-6.7 22.7-18.5 24.3-11.8 1.6-22.7-6.7-24.3-18.5-1.6-11.8 6.7-22.7 18.5-24.3 11.8-1.6 22.7 6.7 24.3 18.5"/><path fill="#fff" d="M131.7 55.5c1.4 10.2-5.8 19.6-16 21-10.2 1.4-19.6-5.8-21-16-1.4-10.2 5.8-19.6 16-21 10.2-1.4 19.6 5.7 21 16"/><path fill="#630055" d="M94.2 60.6c-1.4-10.5 5.9-20.1 16.4-21.6 10.5-1.4 20.1 5.9 21.6 16.4 1.4 10.5-5.9 20.1-16.4 21.6-10.5 1.4-20.2-6-21.6-16.4m1-.2c1.4 10 10.5 16.9 20.5 15.6 10-1.4 16.9-10.5 15.6-20.5-1.4-10-10.5-16.9-20.5-15.6-10 1.4-17 10.6-15.6 20.5"/><text transform="matrix(.983 -.182 .182 .983 42.7 75.275)" fill="#630055" font-family="'Silverfake'" font-size="8.465">TRADE</text><text transform="matrix(.983 -.182 .182 .983 140.375 56.996)" fill="#630055" font-family="'Silverfake'" font-size="8.465">MARK</text><path fill="#DBCE5D" d="M21.5 89.3l12.2-14.5-12.2-12 176.4-32.9-11.4 15.6 11.7 11.2z"/><path fill="#5DDB65" d="M32.9 74.9l-12.7-12.5 179.2-33.4-12 16.5 12.2 11.7-178 32.8-1.7.3 13-15.4zm-10.9 14.9l-.4-.5.4.5zm.9-26.6l11.7 11.6-11.4 13.5 173.6-32-11.1-10.7 10.8-14.7-173.6 32.3z"/><path fill="#AEECB3" d="M193.6 55.3l-167.2 31.2 10.1-11.9-10.2-10.1 167.1-31.5-9.5 13zM134.6 55.1c1.6 11.8-6.7 22.7-18.5 24.3-11.8 1.6-22.7-6.7-24.3-18.5-1.6-11.8 6.7-22.7 18.5-24.3 11.8-1.6 22.7 6.7 24.3 18.5"/><path fill="#DBCE5D" d="M131.7 55.5c1.4 10.2-5.8 19.6-16 21-10.2 1.4-19.6-5.8-21-16-1.4-10.2 5.8-19.6 16-21 10.2-1.4 19.6 5.7 21 16M94.2 60.6c-1.4-10.5 5.9-20.1 16.4-21.6 10.5-1.4 20.1 5.9 21.6 16.4 1.4 10.5-5.9 20.1-16.4 21.6-10.5 1.4-20.2-6-21.6-16.4m1-.2c1.4 10 10.5 16.9 20.5 15.6 10-1.4 16.9-10.5 15.6-20.5-1.4-10-10.5-16.9-20.5-15.6-10 1.4-17 10.6-15.6 20.5"/><path fill="#fff" d="M105.6 66.5l1.2-5.2h2.3l-.4 1.7c1 1.1 2.2 1.6 3.6 1.6 1 0 1.8-.3 2.5-.9.7-.6 1-1.3 1-2.1 0-.7-.2-1.4-.7-1.9-.4-.5-1.3-1.2-2.6-2.1-1.4-.9-2.4-1.8-2.9-2.6s-.8-1.8-.8-2.8c0-1.5.5-2.8 1.6-3.7s2.4-1.4 4.1-1.4c1.6 0 3 .5 4 1.6l.3-1.3h2.3l-1.2 5.2h-2.3l.3-1.5c-.4-.6-.9-1-1.5-1.4-.7-.3-1.3-.5-2-.5-.9 0-1.6.2-2.2.7-.6.5-.9 1.1-.9 1.9 0 .6.2 1.2.6 1.7.4.5 1.1 1.2 2.3 1.9 1.2.8 2 1.4 2.5 1.8.5.5.9 1 1.3 1.7.3.7.5 1.4.5 2.2 0 1.7-.6 3-1.8 4-1.2 1-2.7 1.5-4.6 1.5-1.5 0-2.8-.4-3.9-1.3l-.2 1h-2.4z"/></g></svg>