<svg xmlns="http://www.w3.org/2000/svg" viewBox="0 0 500 500" enable-background="new 0 0 500 500"><path fill="#023C69" d="M349.4 199c.1 2.2.2 4.4.2 6.6 0 67.8-51.6 145.9-145.9 145.9-29 0-55.9-8.5-78.6-23 4 .5 8.1.7 12.2.7 24 0 46.1-8.2 63.7-21.9-22.4-.4-41.4-15.3-47.9-35.6 3.1.6 6.3.9 9.6.9 4.7 0 9.2-.6 13.5-1.8-23.4-4.7-41.1-25.4-41.1-50.3v-.6c6.9 3.8 14.8 6.2 23.2 6.4-13.8-9.2-22.8-24.9-22.8-42.7 0-9.4 2.5-18.2 6.9-25.8 25.3 31 63.1 51.5 105.7 53.6-.9-3.8-1.3-7.7-1.3-11.7 0-28.3 23-51.3 51.3-51.3 14.7 0 28.1 6.2 37.4 16.2 11.7-2.3 22.7-6.6 32.6-12.4-3.8 12-12 22-22.6 28.4 10.4-1.2 20.3-4 29.5-8.1-6.9 10.3-15.6 19.3-25.6 26.5z"/></svg>