<svg xmlns="http://www.w3.org/2000/svg" viewBox="0 0 500 500" enable-background="new 0 0 500 500"><path fill="#023C69" d="M374.9 179.4h-34v34h-17v-34h-34v-17h34v-34h17v34h34zM254.2 268.1c-6.8-5.1-21.7-15.6-21.7-22.7 0-8.3 2.3-12.3 14.8-22 12.7-10 21.8-23.1 21.8-39.4 0-17.7-7.2-33.8-20.9-41.7h19.3l16.5-17.3h-73.7c-37.4 0-68.6 27.6-68.6 57.9 0 31 20.5 55.7 55.6 55.7 2.4 0 4.8-.1 7.1-.3-2.3 4.4-3.9 9.3-3.9 14.4 0 8.6 4.7 13.5 10.6 19.2-4.4 0-8.7.1-13.4.1-42.8 0-72.8 29.5-72.8 57.7 0 27.9 36.1 45.3 78.9 45.3 48.8 0 78.8-27.7 78.8-55.5.3-22.4-4.6-33.6-28.4-51.4zm-84.7-85.7c-3.4-26.1 9.9-46 29.7-45.5 19.9.6 36.9 22 40.3 48.1 3.4 26.1-8 42.9-27.8 42.3-19.9-.6-38.8-18.8-42.2-44.9zm34.4 180.3c-29.6 0-51-18.7-51-41.2 0-22.1 25.1-41.1 54.7-40.7 6.9.1 13.3 1.2 19.2 3.1 16.1 11.2 29 18.2 32.3 30.9.6 2.6.9 5.2.9 7.9 0 22.4-14.5 40-56.1 40z"/></svg>