<svg xmlns="http://www.w3.org/2000/svg" viewBox="0 0 500 500" enable-background="new 0 0 500 500"><path fill="#023C69" d="M391.1 334.3c0 6.3-1.2 10.7-3.7 13.1-2.4 2.4-6.5 3.6-12.1 3.6h-236.8c-4.3 0-7.9-1.2-10.7-3.6-3.4-3-5.1-7.3-5.1-13.1v-170c0-4.2 1.6-7.7 4.9-10.8 3.3-3 6.9-4.5 10.9-4.5h236.8c5.3 0 9.2 1.4 11.8 4.3 2.6 2.8 3.9 6.5 3.9 11.1v169.9h.1zm-182.5-84.4l-70.2-69.3v140.7l70.2-71.4zm155.6-85.9h-214.5l89.8 89.8c7.9 7.9 13.7 11.8 17.4 11.8 3.7 0 9.5-3.9 17.4-11.8l89.9-89.8zm-.6 170.1l-70.5-70.5-11.5 11.4c-6.7 6.7-15 10-24.7 10s-18-3.3-24.7-10l-11.5-11.4-70.5 70.5h213.4zm11.8-12.9v-140.6l-70.2 69.3 70.2 71.3z"/></svg>